<svg width="660" height="500" xmlns="http://www.w3.org/2000/svg" xmlns:svg="http://www.w3.org/2000/svg" preserveAspectRatio="xMidYMid meet">
 <g id="TFighter">
  <title>TFighter</title>
  <path id="svg_1" stroke="#0000ff" fill="none" stroke-width="3" d="m195.57239,306.9128c0.18499,0.33915 -31.58768,-87.40254 -31.58768,-87.40254c0,0 -71.86026,1.23189 -72.18427,1.0362c-0.32401,-0.19569 4.01968,141.86306 3.69567,141.66737c-0.32401,-0.19569 45.49332,100.38943 45.16931,100.19374c-0.32401,-0.19569 56.99096,-43.74173 56.99096,-43.74173c0,0 -0.40378,-68.49439 -0.72779,-68.69008"/>
  <path id="svg_2" stroke="#0000ff" fill="none" stroke-width="3" stroke-dasharray="null" stroke-linejoin="null" stroke-linecap="null" d="m243.73183,298.25031c0,0 -2.06003,-1.41862 -2.06003,-1.41862c0,0 -2.96129,-1.03172 -2.96129,-1.03172c0,0 -3.60504,-1.16069 -3.60504,-1.16069c0,0 -3.09004,-0.64483 -3.09004,-0.64483c0,0 -3.21879,-0.51586 -3.21879,-0.51586c0,0 -2.96129,-0.12896 -2.96129,-0.12896c0,0 -2.83254,-0.12897 -2.83254,-0.12897c0,0 -4.12005,0.12897 -4.12005,0.12897c0,0 -3.47629,0.3869 -3.47629,0.3869c0,0 -3.21879,0.77379 -3.21879,0.77379c0,0 -2.96129,1.28965 -2.96129,1.28965c0,0 -2.83254,1.41862 -2.83254,1.41862c0,0 -2.44628,1.16069 -2.44628,1.16069c0,0 -2.18878,1.80551 -2.18878,1.80551c0,0 -2.31753,1.93448 -2.31753,1.93448c0,0 -1.54502,1.93448 -1.54502,1.93448c0,0 -1.54502,2.19241 -1.54502,2.19241c0,0 -1.41627,2.9662 -1.41627,2.9662c0,0 -1.15876,1.93448 -1.15876,1.93448c0,0 -1.03001,2.45034 -1.03001,2.45034c0,0 -0.64376,1.80551 -0.64376,1.80551c0,0 -0.5482,1.87302 -0.57536,2.11785c-0.02716,0.24483 -0.49489,2.01508 -0.54921,2.39593c-0.05432,0.38085 -0.44346,2.5414 -0.47062,2.92225c-0.02716,0.38085 -0.39644,2.66356 -0.39644,3.04441c0,0.38085 -0.05092,2.58875 -0.05092,2.83358c0,0.24483 0.07418,2.68421 0.10474,2.89844c0.03055,0.21423 0.39279,2.74543 0.39279,2.74543c0,0 0.64376,2.9662 0.64376,2.9662c0,0 0.64376,3.09517 0.64376,3.09517c0,0 0.64376,2.45034 0.64376,2.45034c0,0 1.03001,2.32138 1.15876,2.32138c0.12875,0 1.54502,2.45034 1.54502,2.45034c0,0 1.67377,2.19241 1.67377,2.19241c0,0 1.17838,1.56068 1.34133,1.88712c0.16295,0.32644 1.36245,1.46597 1.36245,1.46597c0,0 1.93127,1.67655 1.93127,1.67655c0,0 2.44628,1.54758 2.44628,1.54758c0,0 2.12038,1.37126 2.32407,1.49368c0.20369,0.12242 2.45282,1.2962 2.45282,1.2962c0,0 2.14804,1.11988 2.35173,1.2423c0.20369,0.12242 2.1415,0.73954 2.1415,0.73954c0,0 2.44628,0.64483 2.44628,0.64483c0,0 3.09004,0.51586 3.09004,0.51586c0,0 3.47629,0.3869 3.47629,0.3869c0,0 2.70378,0.25793 2.70378,0.25793c0,0 3.09004,0 3.09004,0c0,0 3.09004,-0.12897 3.09004,-0.12897c0,0 2.96129,-0.77379 2.96129,-0.77379c0,0 3.34754,-1.41862 3.34754,-1.41862c0,0 2.18878,-1.54758 2.18878,-1.54758c0,0 2.31753,-1.41862 2.31753,-1.41862c0,0 2.31753,-1.93448 2.31753,-1.93448c0,0 2.06003,-1.67655 2.06003,-1.67655c0,0 1.80252,-2.19241 1.80252,-2.19241c0,0 2.06003,-2.06344 2.06003,-2.06344c0,0 1.54502,-2.06345 1.54502,-2.06345c0,0 1.54502,-2.32138 1.54502,-2.32138c0,0 0.90126,-1.67655 0.90126,-1.67655c0,0 -1.80252,-2.19241 -1.80252,-2.19241c0,0 -2.06003,-3.3531 -2.06003,-3.3531c0,0 -1.15876,-3.48206 -1.15876,-3.48206c0,0 -0.77251,-3.86896 -0.77251,-3.86896c0,0 -0.77251,-4.90068 -0.77251,-4.90068c0,0 -0.38626,-3.3531 -0.38626,-3.3531c0,0 0.2575,-4.51378 0.2575,-4.51378c0,0 0.90126,-2.83724 0.90126,-2.83724c0,0 0.77251,-2.19241 0.77251,-2.19241c0,0 -2.06003,-2.57931 -2.06003,-2.57931c0,0 -1.28752,-2.70827 -1.28752,-2.70827c0,0 -0.77251,-3.09517 -0.77251,-3.09517c0,0 -0.77251,-3.3531 -0.77251,-3.3531c0,0 -0.51501,-3.09517 -0.51501,-3.09517l0,0l0.00003,0.00003z"/>
  <path id="svg_3" stroke="#0000ff" fill="none" stroke-width="3" stroke-dasharray="null" stroke-linejoin="null" stroke-linecap="null" d="m194.87186,309.63193c0,0 -10.37638,5.262 -10.37638,5.262c0,0 -9.88226,4.57989 -9.88226,4.57989c0,0 -6.32465,2.33867 -6.32465,2.33867c0,0 -7.11523,0.877 -7.11523,0.877c0,0 -5.13878,0.38978 -5.13878,0.38978c0,0 -2.66821,1.07189 -2.76703,1.07189c-0.09882,0 -1.77881,2.24122 -1.77881,2.24122c0,0 -1.67999,3.99522 -1.67999,3.99522c0,0 -0.79058,3.99522 -0.79058,3.99522c0,0 0.19765,4.87222 0.19765,4.87222c0,0 1.58116,2.92333 1.58116,2.92333c0,0 3.0635,2.82589 3.0635,2.82589c0,0 2.76703,1.85144 2.76703,1.85144c0,0 3.26115,1.55911 3.26115,1.55911c0,0 2.56939,0.58467 2.56939,0.58467c0,0 2.37174,-1.754 2.37174,-1.754c0,0 3.0635,-2.14378 3.0635,-2.14378c0,0 3.26115,-1.55911 3.16232,-1.55911c-0.09882,0 3.0635,-1.26678 3.0635,-1.26678c0,0 5.33642,0.77956 5.33642,0.77956c0,0 5.92936,1.07189 5.92936,1.07189c0,0 5.43524,1.754 5.33642,1.754c-0.09882,0 4.15055,1.26678 4.15055,1.26678"/>
  <path id="svg_4" stroke="#0000ff" fill="none" stroke-width="3" stroke-dasharray="null" stroke-linejoin="null" stroke-linecap="null" d="m167.9711,321.71504c0,0 -0.77956,8.07605 -0.77956,8.07605c0,0 0.29233,4.03803 0.29233,4.03803c0,0 1.754,4.03803 1.754,4.03803c0,0 2.53356,2.5607 2.53356,2.65919c0,0.09849 1.85144,1.87128 1.85144,1.87128"/>
  <line id="svg_5" stroke="#0000ff" fill="none" stroke-width="3" stroke-dasharray="null" stroke-linejoin="null" stroke-linecap="null" x1="149.16433" y1="335.74704" x2="162.22188" y2="334.77259"/>
  <path id="svg_6" stroke="#0000ff" fill="none" stroke-width="3" stroke-dasharray="null" stroke-linejoin="null" stroke-linecap="null" d="m191.63927,311.09359c0,0 -28.064,-80.2076 -28.15062,-80.29422c-0.08662,-0.08662 -6.32306,74.57748 -6.32306,74.57748c0,0 11.95319,16.11081 11.95319,16.11081"/>
  <path id="svg_7" stroke="#0000ff" fill="none" stroke-width="3" stroke-dasharray="null" stroke-linejoin="null" stroke-linecap="null" d="m151.27562,304.33745c0,0 8.66173,-78.30202 8.66173,-78.30202c0,0 -58.55328,0.69294 -58.6399,0.60632c-0.08662,-0.08662 42.35585,82.7195 42.35585,82.7195c0,0 7.62232,-5.0238 7.62232,-5.0238l0,0z"/>
  <path id="svg_8" stroke="#0000ff" fill="none" stroke-width="3" stroke-dasharray="null" stroke-linejoin="null" stroke-linecap="null" d="m138.28303,317.84974c0,0 -39.67071,-84.192 -39.67071,-84.192c0,0 1.90558,113.98834 1.90558,113.98834c0,0 33.95397,-14.032 33.95397,-14.032c0,0 3.81116,-15.76435 3.81116,-15.76435l0,0.00001z"/>
  <path id="svg_9" stroke="#0000ff" fill="none" stroke-width="3" stroke-dasharray="null" stroke-linejoin="null" stroke-linecap="null" d="m135.85775,345.04757c0,0 -35.85955,13.85876 -35.85955,13.85876c0,0 36.03279,80.90054 35.94617,80.81392c-0.08662,-0.08662 8.74835,-79.77452 8.74835,-79.77452c0,0 -8.83496,-14.89817 -8.83496,-14.89817l0,0l-0.00001,0.00001z"/>
  <path id="svg_10" stroke="#0000ff" fill="none" stroke-width="3" stroke-dasharray="null" stroke-linejoin="null" stroke-linecap="null" d="m152.6615,360.98515c0,0 -8.31526,91.98755 -8.31526,91.98755c0,0 46.6001,-36.20602 46.6001,-36.20602c0,0 -28.064,-61.1518 -28.15062,-61.23842c-0.08662,-0.08662 -10.13422,5.45689 -10.13422,5.45689z"/>
  <path id="svg_11" stroke="#0000ff" fill="none" stroke-width="3" stroke-dasharray="null" stroke-linejoin="null" stroke-linecap="null" d="m175.18199,342.54108c0,0 -5.54351,13.42437 -5.54351,13.42437c0,0 22.17402,53.52538 22.17402,53.52538c0,0 -1.21264,-63.5076 -1.21264,-63.5076"/>
  <path id="svg_12" stroke="#0000ff" fill="none" stroke-width="3" stroke-dasharray="null" stroke-linejoin="null" stroke-linecap="null" d="m190.1925,327.15661c0.04,-0.16346 1.47707,-4.56773 1.47707,-4.56773c0,0 2.27561,-3.35795 2.27561,-3.35795c0,0 3.53984,-3.61625 3.53984,-3.61625c0,0 4.04553,-2.58303 4.04553,-2.58303c0,0 3.66626,-1.42067 3.66626,-1.42067c0,0 3.66626,-0.38746 3.66626,-0.38746c0,0 3.53984,0.2583 3.53984,0.2583c0,0 3.16057,0.90406 3.16057,0.90406c0,0 2.65488,1.29152 2.65488,1.29152c0,0 2.52846,2.06643 2.52846,2.06643c0,0 2.52846,2.32473 2.52846,2.32473c0,0 2.40203,3.4871 2.40203,3.4871c0,0 1.6435,3.7454 1.6435,3.7454c0,0 1.01138,4.0037 1.01138,4.0037c0,0 0.37927,3.35795 0.37927,3.35795c0,0 -0.25285,3.61625 -0.25285,3.61625c0,0 -0.37927,3.61625 -0.37927,3.61625c0,0 -1.01138,3.7454 -1.01138,3.7454c0,0 -1.07459,2.6234 -1.23262,3.18843c-0.15803,0.56504 -2.18079,3.14 -2.18079,3.14c0,0 -2.02277,2.45388 -2.02277,2.45388c0,0 -2.52846,1.80812 -2.52846,1.80812c0,0 -3.03415,1.54982 -3.03415,1.54982c0,0 -3.66626,0.77491 -3.66626,0.77491c0,0 -3.66626,0.38746 -3.66626,0.38746c0,0 -3.16057,-0.64576 -3.16057,-0.64576c0,0 -3.79269,-1.16237 -3.79269,-1.16237"/>
  <path id="svg_13" stroke="#0000ff" fill="none" stroke-width="3" stroke-dasharray="null" stroke-linejoin="null" stroke-linecap="null" d="m209.87221,342.93358c0,0 2.1925,-1.60783 2.1925,-1.60783c0,0 1.3155,-2.26558 1.3155,-2.26558c0,0 0.877,-2.92333 0.80392,-2.94771c-0.07308,-0.02438 0.21925,-2.53354 0.21925,-2.53354c0,0 0,-2.631 0,-2.631c0,0 -0.80392,-2.33867 -0.80392,-2.33867c0,0 -0.4385,-1.754 -0.51158,-1.77838c-0.07308,-0.02438 -1.46167,-2.02195 -1.46167,-2.02195c0,0 -2.11942,-1.09625 -2.11942,-1.09625c0,0 -1.754,-0.29233 -1.82708,-0.31671c-0.07308,-0.02438 -2.26559,0.53596 -2.26559,0.53596c0,0 -1.38858,1.46167 -1.46166,1.43729c-0.07308,-0.02438 -1.02317,1.7053 -1.09625,1.68092c-0.07308,-0.02438 -0.65775,1.85146 -0.65775,1.85146c0,0 -0.36542,1.754 -0.4385,1.72962c-0.07308,-0.02438 -0.14617,1.92455 -0.21925,1.90017c-0.07308,-0.02438 -0.07309,1.55913 -0.14617,1.53475c-0.07308,-0.02438 0.21925,1.55913 0.21925,1.55913c0,0 0.58467,1.60783 0.58467,1.60783c0,0 0.51158,1.68092 0.51158,1.68092c0,0 0.65775,1.3155 0.65775,1.3155c0,0 0.80392,1.09625 0.80392,1.09625c0,0 0.80392,0.80392 0.73084,0.77954c-0.07308,-0.02438 1.02316,0.68213 0.95008,0.65775c-0.07308,-0.02438 1.90016,0.60905 1.82708,0.58467c-0.07308,-0.02438 2.1925,-0.41412 2.1925,-0.41412l0,-0.00002z"/>
  <path id="svg_14" stroke="#0000ff" fill="none" stroke-width="3" stroke-dasharray="null" stroke-linejoin="null" stroke-linecap="null" d="m243.65295,298.101c0,0 -4.54741,1.94889 -4.54741,1.94889c0,0 -4.67733,2.9883 -4.67733,2.9883c0,0 -4.15763,3.11822 -4.15763,3.11822c0,0 -3.76785,2.9883 -3.76785,2.9883c0,0 -3.76785,3.63793 -3.76785,3.63793c0,0 -3.37807,3.508 -3.37807,3.508c0,0 -2.33867,3.37807 -2.46859,3.37807c-0.12993,0 -2.33867,3.508 -2.33867,3.508c0,0 -1.55911,3.63793 -1.55911,3.63793"/>
  <path id="svg_15" stroke="#0000ff" fill="none" stroke-width="3" stroke-dasharray="null" stroke-linejoin="null" stroke-linecap="null" d="m204.33617,311.80009c0,0 0,3.23394 0,3.23394c0,0 0.05481,2.631 0.05481,2.631c0,0 0.21925,2.35694 0.21925,2.35694c0,0 0.21925,1.754 0.21925,1.754c0,0 0.65775,2.13769 0.62119,2.13158"/>
  <path id="svg_16" stroke="#0000ff" fill="none" stroke-width="3" stroke-dasharray="null" stroke-linejoin="null" stroke-linecap="null" d="m194.32376,318.66992c0,0 0.79236,2.66528 0.79236,2.66528c0,0 1.16212,2.07892 1.12689,2.07298c-0.03524,-0.00594 1.67278,1.87164 1.67278,1.87164c0,0 1.63754,1.54586 1.63754,1.54586c0,0 1.1093,1.06611 1.07406,1.06017c-0.03524,-0.00594 1.46148,1.12536 1.46148,1.12536"/>
  <path id="svg_17" stroke="#0000ff" fill="none" stroke-width="3" stroke-dasharray="null" stroke-linejoin="null" stroke-linecap="null" d="m190.77921,335.91759l4.57386,-0.11573l3.65557,-0.16444l2.33109,-0.38369"/>
  <path id="svg_18" stroke="#0000ff" fill="none" stroke-width="3" stroke-dasharray="null" stroke-linejoin="null" stroke-linecap="null" d="m198.27023,351.86802c0,0 1.79054,-3.41404 1.79054,-3.41404c0,0 2.41034,-3.84079 2.41034,-3.84079c0,0 2.06601,-2.70278 2.06601,-2.70278"/>
  <path id="svg_19" stroke="#0000ff" fill="none" stroke-width="3" stroke-dasharray="null" stroke-linejoin="null" stroke-linecap="null" d="m216.08429,355.65009c0,0 -2.70408,-4.67733 -2.70408,-4.67733c0,0 -2.26558,-4.96967 -2.33866,-4.99405c-0.07308,-0.02438 -1.09625,-3.26437 -1.09625,-3.26437"/>
  <path id="svg_20" stroke="#0000ff" fill="none" stroke-width="3" stroke-dasharray="null" stroke-linejoin="null" stroke-linecap="null" d="m228.58154,330.87484l-2.33866,1.07187l-2.48483,0.51158l-3.21567,0.14617l-2.92333,0.07308l-3.36183,-0.36542"/>
  <path id="svg_21" stroke="#0000ff" fill="none" stroke-width="3" stroke-dasharray="null" stroke-linejoin="null" stroke-linecap="null" d="m213.45329,338.4755c0,0 1.97325,1.53475 1.97325,1.60783c0,0.07308 2.55792,1.97325 2.48484,1.94887c-0.07308,-0.02438 2.85025,1.77838 2.85025,1.77838c0,0 2.55792,1.46167 2.55792,1.46167c0,0 2.1925,1.09625 2.1925,1.09625c0,0 3.72725,1.90017 3.65417,1.87579c-0.07308,-0.02438 3.36183,1.12063 3.28875,1.09625c-0.07308,-0.02438 3.58108,0.75521 3.58108,0.75521c0,0 3.508,0.4385 3.43492,0.41412c-0.07308,-0.02438 3.65416,0.46288 3.58108,0.4385c-0.07308,-0.02438 3.43491,-0.12179 3.36183,-0.14617c-0.07308,-0.02438 3.36183,-0.19487 3.28875,-0.21925"/>
  <path id="svg_22" stroke="#0000ff" fill="none" stroke-width="3" stroke-dasharray="null" stroke-linejoin="null" stroke-linecap="null" d="m257.56893,189.26051c0,0 4.38005,146.1843 4.38005,146.1843c0,0 36.68295,133.59165 36.68295,133.59165c0,0 40.5155,-43.25303 40.5155,-43.25303c0,0 -0.54751,-125.92655 -0.73464,-125.98537c-0.18714,-0.05881 -31.56826,-106.1575 -31.56826,-106.1575c0,0 -49.27561,-4.38005 -49.27561,-4.38005l0,0l0.00001,0z"/>
  <path id="svg_23" stroke="#0000ff" fill="none" stroke-width="3" stroke-dasharray="null" stroke-linejoin="null" stroke-linecap="null" d="m263.30064,200.56994c0,0 4.85057,131.88925 4.70621,131.74488c-0.14436,-0.14436 28.32385,-13.94538 28.32385,-13.94538c0,0 0,-20.55717 0,-20.55717c0,0 -33.03006,-97.24233 -33.03006,-97.24233l0,0z"/>
  <path id="svg_24" stroke="#0000ff" fill="none" stroke-width="3" stroke-dasharray="null" stroke-linejoin="null" stroke-linecap="null" d="m266.30337,196.18134c0,0 36.03279,98.16625 36.03279,98.16625c0,0 3.00273,-2.77175 3.00273,-2.77175c0,0 -0.69294,-90.77491 -0.69294,-90.77491c0,0 -38.34258,-4.61959 -38.34258,-4.61959z"/>
  <path id="svg_25" stroke="#0000ff" fill="none" stroke-width="3" stroke-dasharray="null" stroke-linejoin="null" stroke-linecap="null" d="m310.8824,224.36082c0,0 0.69294,73.68243 0.69294,73.68243c0,0 4.17661,13.38146 4.18258,13.47888c0.00597,0.09742 14.52675,-9.32125 14.52675,-9.32125c0,0 -19.40227,-77.84006 -19.40227,-77.84006z"/>
  <path id="svg_26" stroke="#0000ff" fill="none" stroke-width="3" stroke-dasharray="null" stroke-linejoin="null" stroke-linecap="null" d="m331.67054,311.67104c0,0 -13.62779,10.62505 -13.62779,10.62505c0,0 -1.1549,25.63871 -1.29926,25.49435c-0.14436,-0.14436 15.85096,56.73432 15.7066,56.58996c-0.14436,-0.14436 -0.77956,-92.70936 -0.77956,-92.70936l0,0l0.00001,0z"/>
  <path id="svg_27" stroke="#0000ff" fill="none" stroke-width="3" stroke-dasharray="null" stroke-linejoin="null" stroke-linecap="null" d="m310.8824,348.16579l-3.60905,1.47249l-3.23371,102.0929l28.87243,-30.95124l-22.02966,-72.61415l0,0l-0.00001,0z"/>
  <path id="svg_28" stroke="#0000ff" fill="none" stroke-width="3" stroke-dasharray="null" stroke-linejoin="null" stroke-linecap="null" d="m301.64322,346.77991c0,0 -5.54351,-16.63052 -5.54351,-16.63052c0,0 -25.40774,12.93485 -25.5521,12.79049c-0.14436,-0.14436 27.16895,104.0851 27.02459,103.94074c-0.14436,-0.14436 4.07101,-100.1007 4.07101,-100.1007l0.00001,-0.00001z"/>
  <path id="svg_29" stroke="#0000ff" fill="none" stroke-width="3" stroke-dasharray="null" stroke-linejoin="null" stroke-linecap="null" d="m260.9331,306.61115c0,0 -3.60544,-0.09744 -3.60544,-0.09744c0,0 -5.55433,-1.754 -5.55433,-1.754c0,0 -4.77478,-3.21567 -4.77478,-3.21567c0,0 -3.60544,-3.508 -3.60544,-3.508"/>
  <path id="svg_30" stroke="#0000ff" fill="none" stroke-width="3" stroke-dasharray="null" stroke-linejoin="null" stroke-linecap="null" d="m261.32288,314.11437c0,0 -4.09267,0.09744 -4.09267,0.09744c0,0 -4.48244,-0.48722 -4.48244,-0.48722c0,0 -3.60544,-0.68211 -3.60544,-0.68211"/>
  <path id="svg_31" stroke="#0000ff" fill="none" stroke-width="3" stroke-dasharray="null" stroke-linejoin="null" stroke-linecap="null" d="m263.44229,340.96033c0,0 -3.0695,1.53475 -3.0695,1.53475c0,0 -2.48483,0.95008 -2.55792,0.95008c-0.07308,0 -3.508,0.65775 -3.508,0.65775"/>
 </g>
 <g id="Xwing">
  <title>Xwing</title>
  <path id="svg_32" stroke="#0000ff" fill="none" stroke-width="3" stroke-dasharray="null" stroke-linejoin="null" stroke-linecap="null" d="m549.56138,89.12472c0,0 -18.96918,-2.20874 -18.96918,-2.33867c0,-0.12993 -45.86385,27.28444 -45.86385,27.28444c0,0 15.85096,4.28756 15.85096,4.28756c0,0 48.98207,-29.23333 48.98207,-29.23333z"/>
  <line id="svg_33" stroke="#0000ff" fill="none" stroke-width="3" stroke-dasharray="null" stroke-linejoin="null" stroke-linecap="null" x1="493.17353" y1="108.87346" x2="509.28435" y2="113.29094"/>
  <path id="svg_34" stroke="#0000ff" fill="none" stroke-width="3" stroke-dasharray="null" stroke-linejoin="null" stroke-linecap="null" d="m484.95933,113.86839c0,0 -17.24646,20.63416 -17.24646,20.63416c0,0 -87.15623,72.37355 -87.37759,72.0752c-0.22135,-0.29835 -10.55768,9.8455 -10.55768,9.8455c0,0 -6.7754,8.62323 -6.99675,8.32488c-0.22135,-0.29835 -2.5504,5.84185 -2.5504,5.84185c0,0 0.92392,4.31162 0.92392,4.31162c0,0 4.00364,2.15581 4.00364,2.15581c0,0 5.23553,0.61595 5.23553,0.92392c0,0.30797 12.01093,-4.92756 12.01093,-4.92756c0,0 37.57265,-18.47835 37.3513,-18.7767c-0.22135,-0.29835 96.61676,-66.5317 96.61676,-66.5317c0,0 5.85148,-2.46378 5.85148,-2.46378c0,0 3.3877,-0.92392 3.3877,-0.92392"/>
  <path id="svg_35" stroke="#0000ff" fill="none" stroke-width="3" stroke-dasharray="null" stroke-linejoin="null" stroke-linecap="null" d="m509.15442,112.90116c0,0 -3.63793,16.89037 -3.63793,16.89037c0,0 -5.06711,-11.69333 -5.06711,-11.69333"/>
  <path id="svg_36" stroke="#0000ff" fill="none" stroke-width="3" stroke-dasharray="null" stroke-linejoin="null" stroke-linecap="null" d="m500.57931,118.0982c0,0 -19.74874,21.43778 -19.74874,21.43778c0,0 -13.12252,-5.06711 -13.12252,-5.06711"/>
  <path id="svg_37" stroke="#0000ff" fill="none" stroke-width="3" stroke-dasharray="null" stroke-linejoin="null" stroke-linecap="null" d="m505.5165,129.74822c0,0 -24.77254,10.0476 -24.77254,10.0476c0,0 -77.26261,59.07299 -77.26261,59.07299"/>
  <path id="svg_38" stroke="#0000ff" fill="none" stroke-width="3" stroke-dasharray="null" stroke-linejoin="null" stroke-linecap="null" d="m408.89011,202.56448c0,0 108.40634,-73.29747 108.40634,-73.29747c0,0 1.53986,9.23918 1.53986,9.23918c0,0 -101.93892,72.37355 -101.93892,72.37355c0,0 -8.00729,-8.31526 -8.00729,-8.31526l0.00001,0z"/>
  <path id="svg_39" stroke="#0000ff" fill="none" stroke-width="3" stroke-dasharray="null" stroke-linejoin="null" stroke-linecap="null" d="m492.05904,109.64896c0,0 0.98662,-3.34356 0.93181,-3.34356c-0.05481,0 -0.21925,-4.98794 -0.25582,-4.99404c-0.03657,-0.0061 -0.84043,-3.99521 -0.877,-4.00131c-0.03657,-0.0061 -1.55299,-2.95377 -1.58956,-2.95987c-0.03657,-0.0061 -2.42999,-2.13158 -2.46656,-2.13769c-0.03657,-0.0061 -2.15593,-0.59683 -2.1925,-0.60294c-0.03657,-0.0061 -2.10112,0.49942 -2.10112,0.49942c0,0 -2.13769,1.58956 -2.13769,1.58956c0,0 -1.3155,2.30212 -1.35207,2.29602c-0.03657,-0.0061 -1.1693,3.29485 -1.20587,3.28875c-0.03657,-0.0061 -0.40193,3.02079 -0.4385,3.01469c-0.03657,-0.0061 -0.01824,3.45929 -0.05481,3.45319c-0.03657,-0.0061 0.42026,2.47267 0.42026,2.47267c0,0 0.65775,2.57619 0.62118,2.57008c-0.03657,-0.0061 1.07801,2.1986 1.04144,2.1925c-0.03657,-0.0061 1.57132,1.65048 1.57132,1.65048c0,0 1.69919,0.93181 1.69919,0.93181"/>
  <path id="svg_40" stroke="#0000ff" fill="none" stroke-width="3" stroke-dasharray="null" stroke-linejoin="null" stroke-linecap="null" d="m488.60586,92.98596c0,0 -1.26069,4.33019 -1.26069,4.33019c0,0 -0.98662,4.05612 -1.0232,4.05002c-0.03657,-0.0061 -0.51155,3.45929 -0.51155,3.45929c0,0 -0.05481,3.17912 -0.05481,3.17912c0,0 0.27406,2.02806 0.27406,2.08287c0,0.05481 0.93181,2.35694 0.93181,2.35694"/>
  <path id="svg_41" stroke="#0000ff" fill="none" stroke-width="3" stroke-dasharray="null" stroke-linejoin="null" stroke-linecap="null" d="m478.30111,102.63296l2.15593,0.59683c0,0 2.39351,0.33498 2.39351,0.33498c0,0 1.47994,-0.16444 1.47994,-0.16444c0,0 0.93181,-0.60294 0.93181,-0.60294c0,0 0.98662,-1.3155 0.95005,-1.3216"/>
  <path id="svg_42" stroke="#0000ff" fill="none" stroke-width="3" stroke-dasharray="null" stroke-linejoin="null" stroke-linecap="null" d="m481.97352,103.56478c0,0 1.39772,0.82219 1.39772,0.82219c0,0 1.06884,1.35661 1.046,1.3505c-0.02285,-0.0061 0.51616,1.11606 0.49331,1.10995c-0.02285,-0.0061 0.76282,1.7327 0.73997,1.72659"/>
  <path id="svg_43" stroke="#0000ff" fill="none" stroke-width="3" stroke-dasharray="null" stroke-linejoin="null" stroke-linecap="null" d="m483.52654,91.92626c0,0 24.62908,-13.30117 24.62908,-13.30117c0,0 2.41175,1.3155 2.41175,1.3155c0,0 2.85025,2.70408 2.85025,2.67971c0,-0.02437 2.04634,2.58229 2.04633,2.55792c0,-0.02437 1.68092,2.72846 1.68092,2.70408c0,-0.02437 0.877,2.65537 0.877,2.65537c0,0 0.51158,3.14258 0.51158,3.14258"/>
  <path id="svg_44" stroke="#0000ff" fill="none" stroke-width="3" stroke-dasharray="null" stroke-linejoin="null" stroke-linecap="null" d="m508.00945,78.55201c0,0 18.12467,-9.42775 18.12467,-9.42775c0,0 1.90017,-0.58467 1.90016,-0.60904c0,-0.02437 2.04634,0.24362 2.04634,0.24362c0,0 1.24242,0.80392 1.24241,0.77954c0,-0.02437 1.24242,1.77837 1.24242,1.77837c0,0 0.4385,1.38858 0.4385,1.38858c0,0 -0.14617,1.46167 -0.14617,1.43729c0,-0.02437 -0.51158,1.63221 -0.51158,1.63221c0,0 -0.877,1.3155 -0.877,1.3155c0,0 -0.73083,1.02317 -0.73083,1.02317c0,0 -13.73967,9.50083 -13.73967,9.50083"/>
  <path id="svg_45" stroke="#0000ff" fill="none" stroke-width="3" stroke-dasharray="null" stroke-linejoin="null" stroke-linecap="null" d="m495.90198,85.22694c0,0 -47.06566,-12.57033 -47.26055,-12.57033c-0.19489,0 -23.77644,10.32911 -23.77644,10.32911c0,0 53.30211,23.19178 53.30211,23.19178"/>
  <line id="svg_46" stroke="#0000ff" fill="none" stroke-width="3" stroke-dasharray="null" stroke-linejoin="null" stroke-linecap="null" x1="478.45942" y1="100.7206" x2="429.93209" y2="80.74449"/>
  <path id="svg_47" stroke="#0000ff" fill="none" stroke-width="3" stroke-dasharray="null" stroke-linejoin="null" stroke-linecap="null" d="m448.44654,72.55916c0,0 4.09267,-1.46167 4.09267,-1.46167c0,0 1.94889,-1.36422 1.94889,-1.36422c0,0 1.36422,-2.43611 1.36422,-2.43611c0,0 -0.19489,-2.82589 -0.19489,-2.82589c0,0 -1.85144,-1.55911 -1.85144,-1.55911c0,0 -3.21567,0.09744 -3.21567,0.09744c0,0 -27.96655,8.47767 -27.96655,8.47767c0,0 -1.46167,0.68211 -1.46167,0.68211c0,0 2.04633,0.19489 2.04633,0.19489c0,0 1.85144,0.48722 1.85144,0.48722c0,0 1.36422,1.26678 1.36422,1.26678c0,0 0.68211,1.55911 0.68211,1.55911c0,0 0.09744,1.85144 0.29233,1.85144c0.19489,0 -0.68211,1.94889 -0.58467,1.94889c0.09744,0 -0.58467,1.65656 -0.58467,1.65656c0,0 -1.46167,1.46167 -1.46167,1.46167"/>
  <path id="svg_48" stroke="#0000ff" fill="none" stroke-width="3" stroke-dasharray="null" stroke-linejoin="null" stroke-linecap="null" d="m420.77231,72.07194c0,0 -0.29233,1.26678 -0.29233,1.26678c0,0 -0.58467,1.65656 -0.58467,1.65656c0,0 -0.877,1.16933 -0.877,1.16933c0,0 -1.46167,1.26678 -1.46167,1.26678c0,0 -45.79889,16.56555 -45.79889,16.56555c0,0 -3.02078,-0.29233 -3.02078,-0.29233c0,0 -2.82589,-0.48722 -2.82589,-0.48722c0,0 -3.21567,0.09744 -3.21567,0.09744c0,0 -1.65656,1.07189 -1.65656,1.07189c0,0 -0.19489,1.36422 -0.19489,1.36422c0,0 1.55911,0.77956 1.55911,0.77956c0,0 1.26678,0.09744 1.26678,0.09744c0,0 1.65656,0.58467 1.65656,0.58467c0,0 0.68211,1.16933 0.68211,1.16933c0,0 0.19489,1.26678 0.19489,1.26678c0,0 -0.09744,1.16933 -0.09744,1.16933c0,0 -0.77956,1.26678 -0.77956,1.26678c0,0 -1.16933,1.46167 -1.16933,1.46167c0,0 -1.16933,1.26678 -1.16933,1.26678c0,0 -0.38978,0.97444 -0.29233,0.97444c0.09744,0 1.16933,0.77956 1.16933,0.77956c0,0 1.65656,-0.38978 1.65656,-0.38978c0,0 2.14378,-1.26678 2.24122,-1.26678c0.09744,0 1.36422,-1.55911 1.36422,-1.55911c0,0 1.65656,-1.85144 1.65656,-1.85144c0,0 1.85144,-1.55911 1.85144,-1.55911c0,0 2.04633,-1.07189 2.24122,-1.07189c0.19489,0 2.24122,-1.07189 2.24122,-1.07189c0,0 44.23978,-15.88344 44.23978,-15.88344c0,0 1.46167,0.09744 1.46167,0.09744c0,0 1.26678,0.38978 1.26678,0.38978c0,0 0.68211,0.38978 0.68211,0.38978"/>
  <path id="svg_49" stroke="#0000ff" fill="none" stroke-width="3" stroke-dasharray="null" stroke-linejoin="null" stroke-linecap="null" d="m419.50554,75.19016c0,0 1.85144,0.09744 1.85144,0.09744c0,0 1.46167,0.68211 1.46167,0.58467c0,-0.09744 0.77956,0.77956 0.77956,0.77956c0,0 0.29233,0.877 0.29233,0.877c0,0 0,1.46167 0,1.46167c0,0 -0.38978,1.16933 -0.38978,1.16933c0,0 -0.48722,0.877 -0.48722,0.877c0,0 -1.46167,0.77956 -1.46167,0.77956"/>
  <path id="svg_50" stroke="#0000ff" fill="none" stroke-width="3" stroke-dasharray="null" stroke-linejoin="null" stroke-linecap="null" d="m371.56287,93.89949c0,0 1.36422,0.68211 1.36422,0.68211c0,0 0.877,0.77956 0.877,0.77956c0,0 0.48722,1.07189 0.48722,1.07189c0,0 0,1.36422 0,1.36422c0,0 -0.877,1.55911 -0.877,1.55911"/>
  <path id="svg_51" stroke="#0000ff" fill="none" stroke-width="3" stroke-dasharray="null" stroke-linejoin="null" stroke-linecap="null" d="m365.81365,97.99216c0,0 -18.02722,7.40578 -18.02722,7.40578c0,0 18.22211,-5.35944 18.22211,-5.35944"/>
  <path id="svg_52" stroke="#0000ff" fill="none" stroke-width="3" stroke-dasharray="null" stroke-linejoin="null" stroke-linecap="null" d="m478.88168,108.6136c0,0 -30.66252,2.59852 -30.79244,2.59852c-0.12993,0 -16.63052,6.88607 -16.63052,6.88607c0,0 -1.68904,1.94889 -1.68904,1.94889c0,0 0.12993,1.81896 0.12993,1.81896c0,0 45.21422,3.63793 45.21422,3.63793"/>
  <line id="svg_53" stroke="#0000ff" fill="none" stroke-width="3" stroke-dasharray="null" stroke-linejoin="null" stroke-linecap="null" x1="479.14153" y1="120.69671" x2="431.19887" y2="118.22812"/>
  <path id="svg_54" stroke="#0000ff" fill="none" stroke-width="3" stroke-dasharray="null" stroke-linejoin="null" stroke-linecap="null" d="m429.83465,121.86605c0,0 0,1.26678 0,1.26678c0,0 -0.877,1.26678 -0.877,1.26678c0,0 -1.46167,0.58467 -1.46167,0.58467c0,0 -1.65656,0.68211 -1.65656,0.68211c0,0 -1.16933,1.26678 -1.16933,1.26678c0,0 -0.29233,1.55911 -0.29233,1.55911c0,0 -1.26678,1.46167 -1.16933,1.46167c0.09744,0 -43.07044,24.26367 -42.973,24.26367c0.09744,0 -2.53356,0.38978 -2.53356,0.38978c0,0 -2.82589,0 -2.82589,0c0,0 -2.53356,0.19489 -2.53356,0.19489c0,0 -2.43611,0.48722 -2.43611,0.38978c0,-0.09744 -1.26678,0.77956 -1.26678,0.77956c0,0 0.38978,0.877 0.38978,0.877c0,0 2.14378,0.97444 2.14378,0.97444c0,0 1.46167,0.877 1.46167,0.877c0,0 1.16933,1.26678 1.16933,1.26678c0,0 0.38978,1.55911 0.38978,1.55911c0,0 0,1.36422 0,1.36422c0,0 -0.68211,2.14378 -0.68211,2.14378c0,0 -1.07189,1.754 -1.07189,1.754c0,0 -0.68211,1.26678 -0.68211,1.26678c0,0 -0.48722,1.16933 -0.48722,1.16933c0,0 1.26678,0.29233 1.26678,0.29233c0,0 2.04633,-0.68211 2.04633,-0.68211c0,0 2.24122,-1.754 2.24122,-1.754c0,0 2.14378,-2.72844 2.14378,-2.72844c0,0 1.754,-2.14378 1.754,-2.14378c0,0 1.36422,-2.631 1.36422,-2.631c0,0 1.94889,-1.36422 1.94889,-1.36422c0,0 3.89778,-2.14378 3.89778,-2.14378c0,0 40.82922,-21.34033 40.82922,-21.34033c0,0 1.754,-0.19489 1.754,-0.19489c0,0 2.04633,-0.77956 2.04633,-0.77956c0,0 2.92333,-1.07189 2.92333,-1.07189c0,0 3.21567,-2.04633 3.21567,-2.04633c0,0 8.08789,-4.385 8.18533,-4.385c0.09744,0 2.43611,-0.58467 2.43611,-0.58467c0,0 2.43611,-0.68211 2.43611,-0.68211c0,0 3.21567,-0.877 3.21567,-0.877"/>
  <path id="svg_55" stroke="#0000ff" fill="none" stroke-width="3" stroke-dasharray="null" stroke-linejoin="null" stroke-linecap="null" d="m432.66054,133.46194c0,-0.09744 1.16933,-1.65656 1.16933,-1.65656c0,0 0,-2.92333 0,-2.92333c0,0 -0.77956,-1.754 -0.77956,-1.754c0,0 -1.754,-1.65656 -1.754,-1.65656c0,0 -2.33867,-1.16933 -2.33867,-1.16933"/>
  <path id="svg_56" stroke="#0000ff" fill="none" stroke-width="3" stroke-dasharray="null" stroke-linejoin="null" stroke-linecap="null" d="m428.66531,134.33894c0,0 0.97444,-1.36422 0.97444,-1.36422c0,0 0.58467,-2.14378 0.48722,-2.14378c-0.09744,0 -1.16933,-1.65656 -1.16933,-1.65656c0,0 -2.14378,-0.29233 -2.14378,-0.29233c0,0 -1.85144,0.19489 -1.85144,0.19489c0,0 -1.85144,0.877 -1.85144,0.877"/>
  <path id="svg_57" stroke="#0000ff" fill="none" stroke-width="3" stroke-dasharray="null" stroke-linejoin="null" stroke-linecap="null" d="m381.98943,159.4796c0,0 0.77956,-1.65656 0.58467,-1.65656c-0.19489,0 -0.29233,-1.94889 -0.29233,-1.94889c0,0 -1.65656,-1.16933 -1.65656,-1.16933c0,0 -1.26678,-0.38978 -1.26678,-0.38978"/>
  <path id="svg_58" stroke="#0000ff" fill="none" stroke-width="3" stroke-dasharray="null" stroke-linejoin="null" stroke-linecap="null" d="m373.60921,159.67449l-16.663,9.54956l17.15022,-7.016"/>
  <path id="svg_59" stroke="#0000ff" fill="none" stroke-width="3" stroke-dasharray="null" stroke-linejoin="null" stroke-linecap="null" d="m530.66529,100.91551c0,0 -1.53475,1.09625 -1.53475,1.09625c0,0 -1.46167,1.3155 -1.46167,1.3155c0,0 -1.24242,1.46167 -1.24242,1.46167c0,0 -0.877,1.53475 -0.877,1.53475c0,0 -0.58467,1.90017 -0.58467,1.87579c0,-0.02437 -0.4385,1.70529 -0.4385,1.70529c0,0 -0.29233,1.97325 -0.29233,1.97325c0,0 0,2.11942 0,2.09504c0,-0.02437 0.21925,2.07071 0.21925,2.07071c0,0 0.51158,1.90017 0.51158,1.87579c0,-0.02438 0.65775,1.77838 0.65775,1.754c0,-0.02438 0.73084,1.48604 0.73084,1.48604c0,0 0.95008,1.24242 0.95008,1.24242c0,0 1.24242,1.24242 1.24241,1.21804c0,-0.02438 1.38859,0.97446 1.38858,0.95008c0,-0.02438 1.60784,0.90138 1.60784,0.90138c0,0 1.60783,0.36542 1.60783,0.36542c0,0 1.82708,0.14617 1.82708,0.12179c0,-0.02438 1.68092,-0.19487 1.68092,-0.19487c0,0 1.754,-0.51158 1.754,-0.53596c0,-0.02438 1.60784,-0.70646 1.60784,-0.70646c0,0 1.09625,-0.80392 1.09625,-0.80392c0,0 0.877,-1.16933 0.877,-1.16933c0,0 1.09625,-1.53475 1.09625,-1.53475c0,0 0.80392,-1.60783 0.80392,-1.60783c0,0 0.80392,-1.60783 0.80392,-1.60783c0,0 0.51158,-1.90017 0.51158,-1.92454c0,-0.02438 0.14617,-1.94888 0.14617,-1.94888c0,0 0,-1.90017 0,-1.92454c0,-0.02437 -0.21925,-1.72963 -0.21925,-1.72963c0,0 -0.29233,-1.68092 -0.29234,-1.70529c0,-0.02437 -0.58466,-1.58346 -0.58467,-1.60783c0,-0.02437 -0.65775,-1.29113 -0.65775,-1.3155c0,-0.02437 -0.877,-1.21804 -0.877,-1.24242c0,-0.02437 -0.54812,-0.77954 -1.04144,-1.1876c-0.49332,-0.40806 -1.29723,-1.0536 -1.29723,-1.0536c0,0 -2.04633,-1.3155 -2.04633,-1.3155c0,0 -1.90017,-0.65775 -1.90017,-0.68212c0,-0.02437 -2.04633,-0.19488 -2.04633,-0.19488c0,0 -1.97325,0.21925 -1.97325,0.21925c0,0 -1.754,0.73083 -1.754,0.73083l0.00001,-0.00001z"/>
  <path id="svg_60" stroke="#0000ff" fill="none" stroke-width="3" stroke-dasharray="null" stroke-linejoin="null" stroke-linecap="null" d="m532.71162,100.11159c0,0 0.07308,2.41175 0.07308,2.41175c0,0 0.58467,3.14258 0.58467,3.14258c0,0 0.73083,2.48483 0.73083,2.48483c0,0 0.877,2.85025 0.877,2.82588c0,-0.02437 1.60784,1.92454 1.60783,1.90017c0,-0.02437 1.3155,1.77837 1.3155,1.754c0,-0.02437 1.60784,1.04754 1.60783,1.02317c0,-0.02438 2.33867,0.97446 2.33867,0.95008c0,-0.02438 2.631,0.60904 2.631,0.60904"/>
  <path id="svg_61" stroke="#0000ff" fill="none" stroke-width="3" stroke-dasharray="null" stroke-linejoin="null" stroke-linecap="null" d="m534.31945,109.32009l-0.07309,2.38738l-0.36542,2.631l-0.4385,2.26558l-0.73083,2.631l-0.95008,1.754c0,0 -0.877,1.77838 -0.877,1.77838c0,0 -1.02317,1.38858 -1.02317,1.36421"/>
  <path id="svg_62" stroke="#0000ff" fill="none" stroke-width="3" stroke-dasharray="null" stroke-linejoin="null" stroke-linecap="null" d="m532.93087,118.60167l1.60783,-1.85146l1.38858,-0.65775l1.82708,-0.14617l1.82708,-0.07308"/>
  <path id="svg_63" stroke="#0000ff" fill="none" stroke-width="3" stroke-dasharray="null" stroke-linejoin="null" stroke-linecap="null" d="m540.82387,123.93676l3.14258,-0.90138l2.55792,-1.82708l1.60783,-2.55792l1.02317,-2.55792l0.65775,-1.53475c0,0 15.56675,-15.98087 15.56675,-15.98087c0,0 -0.14617,-1.754 -0.14617,-1.77837c0,-0.02437 -0.95008,-2.46046 -0.95008,-2.48483c0,-0.02437 -1.60783,-1.87579 -1.60783,-1.90017c0,-0.02437 -2.85025,-1.72963 -2.85025,-1.754c0,-0.02437 -3.80033,-1.29113 -3.80033,-1.29113c0,0 -3.36183,-0.36542 -3.36184,-0.38979c0,-0.02437 -2.85025,0.09746 -2.85025,0.07308"/>
  <path id="svg_64" stroke="#0000ff" fill="none" stroke-width="3" stroke-dasharray="null" stroke-linejoin="null" stroke-linecap="null" d="m549.66698,89.03946c0,0 19.78731,-14.36087 19.75074,-14.36698c-0.03657,-0.0061 1.57132,-0.65165 1.53475,-0.65775c-0.03657,-0.0061 2.28389,-0.04871 2.24731,-0.05481c-0.03657,-0.0061 2.06464,0.8831 2.02806,0.877c-0.03657,-0.0061 1.07801,1.37642 1.04144,1.37031c-0.03657,-0.0061 0.52989,1.59567 0.49331,1.58956c-0.03657,-0.0061 0.25582,1.70529 0.21925,1.69919c-0.03657,-0.0061 -0.34711,1.92454 -0.38369,1.91844c-0.03657,-0.0061 -0.84043,1.7601 -0.877,1.754c-0.03657,-0.0061 -1.38855,1.48604 -1.42512,1.47994c-0.03657,-0.0061 -10.04893,9.32423 -10.04893,9.32423"/>
  <path id="svg_65" stroke="#0000ff" fill="none" stroke-width="3" stroke-dasharray="null" stroke-linejoin="null" stroke-linecap="null" d="m623.87901,108.48368c0,0.12993 11.17363,-13.64222 11.17363,-13.64222c0,0 2.59852,-0.90948 2.59852,-0.90948c0,0 2.9883,-0.12993 2.9883,-0.12993c0,0 1.94889,0.90948 1.94889,0.90948c0,0 1.03941,2.72844 1.03941,2.72844c0,0 0,3.37807 0,3.37807c0,0 -1.03941,3.37807 -1.03941,3.37807c0,0 -10.26415,16.63052 -10.26415,16.63052c0,0 -2.07881,2.33867 -2.07881,2.33867c0,0 -2.72844,1.29926 -2.72844,1.29926c0,0 -2.72844,0.38978 -2.72844,0.38978c0,0 -1.81896,0.5197 -1.81896,0.5197c0,0 -1.81896,1.29926 -1.81896,1.29926c0,0 -19.35896,27.67422 -19.35896,27.67422c0,0 -0.64963,2.59852 -0.64963,2.59852c0,0 -0.38978,2.59852 -0.38978,2.59852c0,0 -0.90948,1.42918 -0.90948,1.42918c0,0 -1.03941,0.90948 -1.03941,0.90948c0,0 -0.90948,3.11822 -0.90948,3.11822c0,0 -1.16933,3.37807 -1.16933,3.37807c0,0 -1.42919,1.68904 -1.42919,1.68904c0,0 -2.46859,1.29926 -2.46859,1.29926c0,0 -2.20874,-0.38978 -2.20874,-0.38978c0,0 -0.5197,-1.42919 -0.5197,-1.42919c0,0 1.42918,-2.85837 1.42918,-2.85837c0,0 1.03941,-2.33867 1.03941,-2.33867c0,0 0.77956,-3.24815 0.77956,-3.24815c0,0 -0.12993,-2.72844 -0.12993,-2.72844c0,0 -1.03941,-2.85837 -1.03941,-2.85837c0,0 -1.29926,-1.81896 -1.29926,-1.94889c0,-0.12993 -1.29926,-1.42918 -1.29926,-1.55911c0,-0.12993 0.77956,-1.68904 0.77956,-1.68904c0,0 3.508,-0.5197 3.508,-0.5197c0,0 2.85837,0 2.85837,-0.12993c0,-0.12993 2.20874,-1.16933 2.20874,-1.16933c0,0 2.46859,-2.59852 2.46859,-2.72844c0,-0.12993 17.66992,-23.38667 17.66992,-23.38667c0,0 -1.16933,-1.81896 -1.16933,-1.81896c0,0 -0.38978,-2.20874 -0.38978,-2.20874c0,0 0.5197,-3.11822 0.5197,-3.11822c0,0 1.68904,-2.85837 1.68904,-2.85837c0,0 1.81896,-2.07882 1.81896,-2.07882c0,0 2.33867,-1.81896 2.33867,-1.81896l-0.00002,0.00002z"/>
  <path id="svg_66" stroke="#0000ff" fill="none" stroke-width="3" stroke-dasharray="null" stroke-linejoin="null" stroke-linecap="null" d="m621.3617,110.48942c0,0 2.48483,-0.95008 2.48483,-0.95008c0,0 2.70408,0 2.70408,-0.02437c-0.00001,-0.02437 1.97326,0.75521 1.97325,0.73083c-0.00001,-0.02437 1.75401,1.26679 1.75401,1.26679c0,0 1.16933,1.3155 1.16933,1.29113c-0.00001,-0.02437 0.80392,1.77837 0.80392,1.77837c0,0 0.58467,1.82708 0.58466,1.80271c-0.00001,-0.02438 0.36542,1.12063 0.36542,1.12063c0,0 0.07308,1.3155 0.07308,1.29112"/>
  <path id="svg_67" stroke="#0000ff" fill="none" stroke-width="3" stroke-dasharray="null" stroke-linejoin="null" stroke-linecap="null" d="m618.87687,122.54817c0,0 4.67733,-5.62742 4.67733,-5.62742c0,0 0.877,-0.58467 0.87699,-0.60904c-0.00001,-0.02438 1.38859,-0.34104 1.38858,-0.36542c-0.00001,-0.02438 0.87701,0.31671 0.877,0.29233c-0.00001,-0.02438 0.65776,0.53596 0.65776,0.53596c0,0 0.14617,0.877 0.14617,0.877c0,0 -0.14617,1.24242 -0.14617,1.21804c-0.00001,-0.02438 -6.21208,7.69813 -6.21208,7.69813"/>
  <path id="svg_68" stroke="#0000ff" fill="none" stroke-width="3" stroke-dasharray="null" stroke-linejoin="null" stroke-linecap="null" d="m596.47685,149.7169c0,0 1.04144,1.09625 1.04144,1.09625c0,0 0.76737,1.58956 0.7308,1.58346c-0.03657,-0.0061 0.69432,1.97935 0.74914,2.08898c0.05481,0.10962 0.27406,2.35694 0.23749,2.35083c-0.03657,-0.0061 0.20101,2.03417 0.16444,2.02806c-0.03657,-0.0061 -0.67599,2.96598 -0.71256,2.95987"/>
  <path id="svg_69" stroke="#0000ff" fill="none" stroke-width="3" stroke-dasharray="null" stroke-linejoin="null" stroke-linecap="null" d="m593.1881,158.87059c0,0 -10.14031,14.96381 -10.17689,14.95771c-0.03657,-0.00611 9.95764,-11.61414 10.01245,-11.50452"/>
  <path id="svg_70" stroke="#0000ff" fill="none" stroke-width="3" stroke-dasharray="null" stroke-linejoin="null" stroke-linecap="null" d="m565.28242,98.34946l2.46859,-1.42919l3.89778,-0.12993l5.71674,0.77956l3.11822,1.29926l2.20874,2.33867l1.16933,1.68904c0,0 1.42918,1.29926 1.42918,1.29926c0,0 38.84785,3.508 38.84785,3.508"/>
  <path id="svg_71" stroke="#0000ff" fill="none" stroke-width="3" stroke-dasharray="null" stroke-linejoin="null" stroke-linecap="null" d="m617.77249,119.52738c0,0 -47.94266,-1.29926 -48.07259,-1.29926c-0.12993,0 -21.17792,-0.38978 -21.17792,-0.38978"/>
  <path id="svg_72" stroke="#0000ff" fill="none" stroke-width="3" stroke-dasharray="null" stroke-linejoin="null" stroke-linecap="null" d="m543.84464,123.13282c0,0 5.06711,0 5.06711,0c0,0 68.01622,1.754 68.01622,1.754"/>
  <line id="svg_73" stroke="#0000ff" fill="none" stroke-width="3" stroke-dasharray="null" stroke-linejoin="null" stroke-linecap="null" x1="569.1802" y1="118.06571" x2="585.25853" y2="104.2286"/>
  <path id="svg_74" stroke="#0000ff" fill="none" stroke-width="3" stroke-dasharray="null" stroke-linejoin="null" stroke-linecap="null" d="m630.27787,122.98667l4.09266,-0.82829l3.21567,-0.877l2.99642,-2.04633l4.8235,-8.11225l0.21925,-1.38858l-1.53475,-0.4385l-2.26558,-0.14617c0,0 -2.11941,-0.12179 -2.11941,-0.12179"/>
  <path id="svg_75" stroke="#0000ff" fill="none" stroke-width="3" stroke-dasharray="null" stroke-linejoin="null" stroke-linecap="null" d="m525.54948,144.0164c0,0 -0.38369,3.0695 -0.38369,3.0695c0,0 0.4385,3.56281 0.4385,3.56281c0,0 0.877,2.79544 0.84043,2.78933c-0.03657,-0.0061 1.18764,1.86973 1.15106,1.86362c-0.03657,-0.0061 1.57132,1.37642 1.53475,1.37031c-0.03657,-0.0061 1.62614,0.99273 1.58956,0.98662c-0.03657,-0.0061 2.00982,0.71867 2.00982,0.71867c0,0 1.97325,0.49331 1.97325,0.49331c0,0 2.30212,0.16444 2.30212,0.16444c0,0 2.08287,-0.21925 2.0463,-0.22535c-0.03657,-0.0061 1.9002,-0.70646 1.9002,-0.70646c0,0 1.47994,-0.877 1.44336,-0.8831c-0.03657,-0.0061 1.24245,-1.09015 1.20587,-1.09625c-0.03657,-0.0061 0.69432,-0.92571 0.65775,-0.93181c-0.03657,-0.0061 1.0232,-1.41902 0.98662,-1.42512c-0.03657,-0.0061 1.0232,-2.29602 0.98662,-2.30212c-0.03657,-0.0061 0.52989,-2.24121 0.52989,-2.24121c0,0 0.05481,-2.631 0.01824,-2.6371c-0.03657,-0.0061 -0.2923,-2.13158 -0.32887,-2.13769c-0.03657,-0.0061 -0.62118,-2.24121 -0.65775,-2.24731c-0.03657,-0.0061 -0.7308,-1.85752 -0.76737,-1.86362c-0.03657,-0.0061 -0.95005,-1.3094 -0.98662,-1.3155c-0.03657,-0.0061 -1.11449,-1.03533 -1.15106,-1.04144c-0.03657,-0.0061 -1.1693,-0.92571 -1.20587,-0.93181c-0.03657,-0.0061 -1.55299,-0.65165 -1.58956,-0.65775c-0.03657,-0.0061 -1.71743,-0.48721 -1.754,-0.49331c-0.03657,-0.0061 -1.71743,-0.32277 -1.754,-0.32887c-0.03657,-0.0061 -1.44336,0.17054 -1.47994,0.16444c-0.03657,-0.0061 -2.10111,0.28017 -2.13769,0.27406c-0.03657,-0.0061 -1.82705,0.77348 -1.86362,0.76737c-0.03657,-0.0061 -1.22411,0.8831 -1.26069,0.877c-0.03657,-0.0061 -1.1693,0.93792 -1.20587,0.93181c-0.03657,-0.0061 -1.22411,1.43123 -1.26069,1.42512c-0.03657,-0.0061 -0.7308,1.3216 -0.76737,1.3155c-0.03657,-0.0061 -0.7308,1.3216 -0.76737,1.3155c-0.03657,-0.0061 -0.2923,1.37642 -0.2923,1.37642l-0.00001,-0.00001z"/>
  <path id="svg_76" stroke="#0000ff" fill="none" stroke-width="3" stroke-dasharray="null" stroke-linejoin="null" stroke-linecap="null" d="m536.40235,135.57528l-0.47507,3.39227l-0.21925,3.17912l0.4385,3.01469l1.04144,2.74062l1.64437,1.64437l2.35694,1.04144l2.57619,0.65775c0,0 2.22907,0.38979 2.22907,0.38979"/>
  <path id="svg_77" stroke="#0000ff" fill="none" stroke-width="3" stroke-dasharray="null" stroke-linejoin="null" stroke-linecap="null" d="m535.63498,142.59128l-0.42026,2.29602l-1.09625,2.1925l-1.20587,2.24731l-1.37031,2.02806l-1.53475,1.53475l-1.42512,1.04144l-1.26069,0.65775"/>
  <path id="svg_78" stroke="#0000ff" fill="none" stroke-width="3" stroke-dasharray="null" stroke-linejoin="null" stroke-linecap="null" d="m531.46923,151.41609l2.21074,-0.99273l1.97325,-0.27406l2.08287,-0.05481l1.04144,0.10962c0,0 1.79057,0.28017 1.79057,0.28017"/>
  <path id="svg_79" stroke="#0000ff" fill="none" stroke-width="3" stroke-dasharray="null" stroke-linejoin="null" stroke-linecap="null" d="m529.81264,124.46457l1.68904,2.85837l1.94889,2.85837l2.33867,1.42919c0,0 56.51778,28.064 56.51778,28.064"/>
  <path id="svg_80" stroke="#0000ff" fill="none" stroke-width="3" stroke-dasharray="null" stroke-linejoin="null" stroke-linecap="null" d="m598.54346,162.27301c0,0 28.45378,13.12252 28.45378,13.12252c0,0 8.31526,-16.63052 8.31526,-16.63052c0,0 -24.94578,-17.0203 -24.94578,-17.0203"/>
  <line id="svg_81" stroke="#0000ff" fill="none" stroke-width="3" stroke-dasharray="null" stroke-linejoin="null" stroke-linecap="null" x1="606.23345" y1="139.21117" x2="575.97695" y2="123.93676"/>
  <path id="svg_82" stroke="#0000ff" fill="none" stroke-width="3" stroke-dasharray="null" stroke-linejoin="null" stroke-linecap="null" d="m533.49729,130.14884l-1.95501,1.63827l-1.754,1.97325l-1.3155,2.24731l-0.76737,1.754c0,0 -0.45674,2.30823 -0.45674,2.30823"/>
  <path id="svg_83" stroke="#0000ff" fill="none" stroke-width="3" stroke-dasharray="null" stroke-linejoin="null" stroke-linecap="null" d="m542.48654,157.33584l1.99149,-0.99273l2.13769,-1.47994l2.30212,-2.24731l1.86362,-2.08287l0.49331,-0.60294l20.39025,-0.49331"/>
  <path id="svg_84" stroke="#0000ff" fill="none" stroke-width="3" stroke-dasharray="null" stroke-linejoin="null" stroke-linecap="null" d="m617.07955,170.63158c0,0 -5.54351,9.35467 -5.54351,9.35467c0,0 -1.55911,3.29146 -1.55911,3.29146c0,0 -0.34647,2.07882 -0.34647,2.07882c0,0 0,2.42528 -0.08662,2.33867c-0.08662,-0.08662 -0.77956,2.68514 -0.86617,2.59852c-0.08662,-0.08662 -20.35506,37.33205 -20.35506,37.33205c0,0 -1.55911,0.34647 -1.64573,0.25985c-0.08662,-0.08662 -3.03161,0.95279 -3.11822,0.86617c-0.08662,-0.08662 -1.29926,1.64573 -1.29926,1.64573c0,0 0.5197,3.29146 0.43309,3.20484c-0.08662,-0.08662 0.77956,3.72454 0.77956,3.72454c0,0 0,3.63793 -0.08662,3.55131c-0.08662,-0.08662 -0.95279,3.89778 -1.03941,3.81116c-0.08662,-0.08662 -1.29926,3.03161 -1.38588,2.94499c-0.08662,-0.08662 2.16543,0.43309 2.07881,0.34647c-0.08662,-0.08662 3.89778,-2.68514 3.81116,-2.77175c-0.08662,-0.08662 1.9922,-3.37807 1.90558,-3.46469c-0.08662,-0.08662 1.81896,-3.37807 1.73235,-3.46469c-0.08662,-0.08662 1.29926,-3.89778 1.29926,-3.89778c0,0 -0.17323,-3.63793 -0.25985,-3.72454c-0.08662,-0.08662 24.68593,-40.96997 24.68593,-40.96997c0,0 2.42528,-0.34647 2.33867,-0.43309c-0.08662,-0.08662 2.5119,-1.9922 2.42528,-2.07882c-0.08662,-0.08662 1.81896,-2.5119 1.73234,-2.59852c-0.08662,-0.08662 4.24425,-9.44128 4.24425,-9.44128"/>
  <path id="svg_85" stroke="#0000ff" fill="none" stroke-width="3" stroke-dasharray="null" stroke-linejoin="null" stroke-linecap="null" d="m622.2387,185.1075l-0.36542,-2.43613c0,0 -1.09624,-2.31429 -1.09624,-2.31429c0,0 -2.11942,-1.46167 -2.11942,-1.48604c-0.00001,-0.02438 -1.75399,-0.19487 -1.82708,-0.19487c-0.07308,0 -2.48483,0.14617 -2.48484,0.12179c-0.00001,-0.02438 -1.46166,0.60904 -1.46166,0.60904c0,0 -1.60783,0.877 -1.60783,0.877"/>
  <path id="svg_86" stroke="#0000ff" fill="none" stroke-width="3" stroke-dasharray="null" stroke-linejoin="null" stroke-linecap="null" d="m608.55953,190.52138c0,0 4.50148,-7.06053 4.50148,-7.06053c0,0 0.92496,-0.52414 0.90214,-0.54053c-0.02282,-0.01638 1.50276,-0.3536 1.47994,-0.36998c-0.02282,-0.01638 1.4411,0.5097 1.41827,0.49331c-0.02282,-0.01638 0.70113,1.0955 0.6783,1.07912c-0.02282,-0.01638 0.26948,1.12634 0.24666,1.10995c-0.02282,-0.01638 -0.03884,1.0955 -0.06166,1.07912c-0.02282,-0.01638 -0.2855,1.03384 -0.30832,1.01746c-0.02282,-0.01638 -1.24129,2.45211 -1.24129,2.45211"/>
  <path id="svg_87" stroke="#0000ff" fill="none" stroke-width="3" stroke-dasharray="null" stroke-linejoin="null" stroke-linecap="null" d="m587.9261,227.66027c0,0 1.69919,0.32887 1.69919,0.32887c0,0 1.04144,0.98662 1.00486,0.98052c-0.03657,-0.00611 0.80395,1.70529 0.76737,1.69919"/>
  <path id="svg_88" stroke="#0000ff" fill="none" stroke-width="3" stroke-dasharray="null" stroke-linejoin="null" stroke-linecap="null" d="m583.26704,228.86615l2.42999,1.41902l2.1925,2.41175l1.42512,2.68581c0,0 0.52989,1.32161 0.52989,1.32161c0,0 0.32887,1.69919 0.2923,1.69308"/>
  <path id="svg_89" stroke="#0000ff" fill="none" stroke-width="3" stroke-dasharray="null" stroke-linejoin="null" stroke-linecap="null" d="m583.43145,237.21592l-11.25484,21.82754c0,0 10.74326,-16.7117 10.74326,-16.7117"/>
  <line id="svg_90" stroke="#0000ff" fill="none" stroke-width="3" stroke-dasharray="null" stroke-linejoin="null" stroke-linecap="null" x1="334.9767" y1="108.01691" x2="308.69637" y2="118.28266"/>
  <line id="svg_91" stroke="#0000ff" fill="none" stroke-width="3" stroke-dasharray="null" stroke-linejoin="null" stroke-linecap="null" x1="252.85068" y1="137.9929" x2="224.51721" y2="149.49054"/>
  <line id="svg_92" stroke="#0000ff" fill="none" stroke-width="3" stroke-dasharray="null" stroke-linejoin="null" stroke-linecap="null" x1="166.20774" y1="168.79016" x2="137.87426" y2="180.2878"/>
  <line id="svg_93" stroke="#0000ff" fill="none" stroke-width="3" stroke-dasharray="null" stroke-linejoin="null" stroke-linecap="null" x1="81.61794" y1="200.40867" x2="54.10573" y2="211.90631"/>
  <line id="svg_94" stroke="#0000ff" fill="none" stroke-width="3" stroke-dasharray="null" stroke-linejoin="null" stroke-linecap="null" x1="345.65308" y1="174.53898" x2="326.76409" y2="183.16221"/>
  <line id="svg_95" stroke="#0000ff" fill="none" stroke-width="3" stroke-dasharray="null" stroke-linejoin="null" stroke-linecap="null" x1="236.42548" y1="220.11892" x2="209.73452" y2="231.61656"/>
  <line id="svg_96" stroke="#0000ff" fill="none" stroke-width="3" stroke-dasharray="null" stroke-linejoin="null" stroke-linecap="null" x1="82.84983" y1="291.56855" x2="58.62266" y2="303.06619"/>
  <line id="svg_97" stroke="#0000ff" fill="none" stroke-width="3" stroke-dasharray="null" stroke-linejoin="null" stroke-linecap="null" x1="573.14214" y1="181.10906" x2="560.82323" y2="196.713"/>
  <line id="svg_98" stroke="#0000ff" fill="none" stroke-width="3" stroke-dasharray="null" stroke-linejoin="null" stroke-linecap="null" x1="521.81338" y1="240.23979" x2="509.08384" y2="255.02247"/>
  <line id="svg_99" stroke="#0000ff" fill="none" stroke-width="3" stroke-dasharray="null" stroke-linejoin="null" stroke-linecap="null" x1="463.91454" y1="306.76186" x2="447.0787" y2="326.4721"/>
  <line id="svg_100" stroke="#0000ff" fill="none" stroke-width="3" stroke-dasharray="null" stroke-linejoin="null" stroke-linecap="null" x1="390.68551" y1="393.26793" x2="366.0477" y2="419.00075"/>
  <line id="svg_101" stroke="#0000ff" fill="none" stroke-width="3" stroke-dasharray="null" stroke-linejoin="null" stroke-linecap="null" x1="566.98268" y1="272.26893" x2="557.12756" y2="291.97918"/>
  <line id="svg_102" stroke="#0000ff" fill="none" stroke-width="3" stroke-dasharray="null" stroke-linejoin="null" stroke-linecap="null" x1="530.29973" y1="343.99232" x2="519.3496" y2="365.34508"/>
  <line id="svg_103" stroke="#0000ff" fill="none" stroke-width="3" stroke-dasharray="null" stroke-linejoin="null" stroke-linecap="null" x1="480.84162" y1="437.98098" x2="465.51143" y2="468.64136"/>
 </g>
 <g id="deathStar">
  <title>deathStar</title>
  <path id="svg_104" stroke="#0000ff" fill="none" stroke-width="3" stroke-dasharray="null" stroke-linejoin="null" stroke-linecap="null" d="m184.99927,99.17928l-0.58593,-15.82024l-5.56637,-17.57805l-8.20309,-16.69914l-12.59758,-12.59758l-13.18354,-9.37496l-15.2343,-6.73826l-15.82024,-3.80858c0,0 -13.47649,-0.58593 -13.47649,-0.58593c0,0 -13.47649,1.46484 -13.76946,1.46484c-0.29297,0 -12.59758,3.51561 -12.59758,3.51561c0,0 -8.78902,4.68748 -8.78902,4.68748c0,0 -8.49604,4.68746 -8.49604,4.68746c0,0 -8.78902,6.44528 -8.78902,6.44528c0,0 -6.44528,6.45901 -6.73826,7.03121c-0.29297,0.5722 -5.27342,7.91012 -5.27342,7.91012c0,0 -4.98045,8.49604 -4.98045,8.49604c0,0 -3.51561,8.49604 -3.51561,8.49604c0,0 -3.22265,11.13274 -3.22265,11.13274c0,0 -1.46484,10.25385 -1.75781,10.25385c-0.29297,0 -0.29297,10.83979 -0.58593,10.54682c-0.29297,-0.29297 1.46484,10.83979 1.46484,10.83979c0,0 3.22265,11.42572 2.92967,11.13277c-0.29297,-0.29297 3.80858,9.37496 3.80858,9.37496c0,0 4.39451,7.91012 4.10154,7.91012c-0.29297,0 5.56637,7.61714 5.56637,7.61714c0,0 7.32418,7.32418 7.32418,7.32418c0,0 8.78902,7.32418 8.78902,7.32418c0,0 9.37496,5.85935 9.37496,5.85935c0,0 9.96088,4.98045 9.96088,4.98045c0,0 8.78902,2.92967 8.78902,2.92967c0,0 9.66793,1.75781 9.66793,1.75781c0,0 11.13277,0.29297 11.13277,0.29297c0,0 10.83979,-0.87891 10.83979,-0.87891c0,0 9.37496,-1.75781 9.37496,-1.75781c0,0 9.37496,-2.92967 9.37496,-2.92967c0,0 8.20309,-3.80858 8.20309,-4.10154c0,-0.29297 7.91012,-5.27342 7.91012,-5.27342c0,0 7.91012,-6.1523 7.91012,-6.1523c0,0 8.78902,-8.20309 8.78902,-8.20309c0,0 5.56637,-8.20309 5.56637,-8.49604c0,-0.29297 4.10154,-8.20309 4.10154,-8.20309c0,0 4.10154,-9.08198 4.10154,-9.37496c0,-0.29297 2.6367,-10.54682 2.6367,-10.54682c0,0 1.17186,-7.32418 1.17186,-7.32418c0,0 0.29297,-5.56637 0.29297,-5.56637l0,0.00002l0,0.00001l-0.00001,0.00003z"/>
  <path id="svg_105" stroke="#0000ff" fill="none" stroke-width="3" stroke-dasharray="null" stroke-linejoin="null" stroke-linecap="null" d="m148.10826,164.12801c0,0 -8.4045,-2.30712 -8.56929,-2.36208c-0.16479,-0.05498 -10.21724,-1.75777 -10.38203,-1.81274c-0.16479,-0.05498 -10.21724,-1.0986 -10.38203,-1.15356c-0.16479,-0.05498 -11.53561,-0.10983 -11.53561,-0.10983c0,0 -9.55805,0.49438 -9.72284,0.43941c-0.16479,-0.05498 -8.07493,0.71414 -8.07493,0.71414c0,0 -8.89888,1.31835 -9.06366,1.26339c-0.16479,-0.05498 -8.7341,1.8677 -8.89888,1.81274c-0.16479,-0.05498 -9.06368,3.51565 -9.06368,3.51565"/>
  <path id="svg_106" stroke="#0000ff" fill="none" stroke-width="3" stroke-dasharray="null" stroke-linejoin="null" stroke-linecap="null" d="m166.40041,149.13175l-12.35954,-3.51563l-17.63297,-2.47191l-14.99625,-2.14231l-16.4794,-0.3296l-16.64421,0.16479l-14.17229,0.65917l-12.02996,1.64793l-9.39326,2.6367l-10.71163,4.28465"/>
  <path id="svg_107" stroke="#0000ff" fill="none" stroke-width="3" stroke-dasharray="null" stroke-linejoin="null" stroke-linecap="null" d="m176.12327,131.82838l-17.30336,-3.35084l-19.94008,-3.29589l-15.65545,-1.64793l-14.66668,-0.3296l-18.12736,0.16479l-16.4794,0.98877l-12.35956,1.64793l-14.99625,3.29589l-9.55805,2.9663l-6.09738,1.64793"/>
  <path id="svg_108" stroke="#0000ff" fill="none" stroke-width="3" stroke-dasharray="null" stroke-linejoin="null" stroke-linecap="null" d="m181.93231,116.13174l-14.17235,-4.33961l-16.68541,-3.33708l-17.92135,-2.10112l-18.78652,-1.60674c0,0 -17.09735,-0.60422 -17.22094,-0.60422c-0.12359,0 -14.83147,0.3708 -14.91391,0.35702c-0.08244,-0.01376 -16.97374,2.60928 -17.05618,2.5955c-0.08244,-0.01376 -15.49059,2.98005 -15.57303,2.9663c-0.08244,-0.01376 -13.51306,3.47443 -13.5955,3.46068c-0.08244,-0.01376 -10.91756,4.83399 -10.91756,4.83399"/>
  <path id="svg_109" stroke="#0000ff" fill="none" stroke-width="3" stroke-dasharray="null" stroke-linejoin="null" stroke-linecap="null" d="m185.02222,95.98565l-15.1611,-2.73287c0,0 -18.20971,-3.19972 -18.33329,-3.19972c-0.12359,0 -16.80899,-1.85394 -16.89143,-1.8677c-0.08244,-0.01376 -18.82768,-1.71657 -18.82768,-1.71657c0,0 -16.06741,-0.49438 -16.14987,-0.50814c-0.08244,-0.01376 -14.13105,0.38454 -14.21349,0.3708c-0.08244,-0.01376 -14.50183,1.37331 -14.58427,1.35955c-0.08244,-0.01376 -15.29748,2.03765 -16.83989,2.21699c-1.54241,0.17936 -15.21249,3.11137 -15.29495,3.09762c-0.08244,-0.01376 -12.02992,3.47443 -12.11236,3.46068c-0.08244,-0.01376 -5.10857,2.48567 -5.10857,2.48567"/>
  <path id="svg_110" stroke="#0000ff" fill="none" stroke-width="3" stroke-dasharray="null" stroke-linejoin="null" stroke-linecap="null" d="m184.36298,89.47629l-12.68913,-4.01001c0,0 -15.98504,-2.41695 -15.98504,-2.41695c0,0 -16.64421,-1.97753 -16.80897,-2.03248c-0.16479,-0.05496 -17.63297,-1.26339 -17.79776,-1.31835c-0.16479,-0.05496 -14.83149,-0.43943 -14.99625,-0.49438c-0.16479,-0.05496 -17.46819,0.38454 -17.63297,0.3296c-0.16479,-0.05496 -18.62174,1.37331 -18.62174,1.37331c0,0 -15.82024,2.30712 -15.98502,2.25216c-0.16479,-0.05496 -11.53561,1.8677 -11.53561,1.8677c0,0 -11.53558,3.62547 -11.70036,3.57051c-0.16479,-0.05496 -8.7341,3.02124 -8.89888,2.9663"/>
  <path id="svg_111" stroke="#0000ff" fill="none" stroke-width="3" stroke-dasharray="null" stroke-linejoin="null" stroke-linecap="null" d="m68.22435,29.77755l-8.1161,2.67444c0,0 -5.2322,3.81434 -5.2322,3.81434c0,0 -4.17134,4.35675 -4.22285,4.34299c-0.0515,-0.01376 -3.74906,5.20478 -3.80056,5.191c-0.0515,-0.01376 -2.73095,5.8379 -2.80444,6.02211c-0.07348,0.18422 -0.85194,5.11524 -0.85194,5.20793c0,0.0927 0.46349,5.74719 0.41199,5.73344c-0.0515,-0.01376 1.62735,4.18512 1.57584,4.17134c-0.0515,-0.01376 2.9251,3.16545 2.87359,3.15169c-0.0515,-0.01376 3.48128,1.68229 3.42978,1.66855c-0.0515,-0.01376 4.77903,0.75534 4.72753,0.74156c-0.0515,-0.01376 4.4947,-0.15751 4.3332,-0.14927c-0.1615,0.00824 3.41211,-1.13472 3.36063,-1.14848c-0.0515,-0.01376 4.65493,-2.48905 4.55943,-2.45881c-0.0955,0.03024 4.39094,-2.81113 4.33944,-2.82489c-0.0515,-0.01376 3.50589,-2.84462 3.65972,-3.00504c0.15381,-0.16041 3.34403,-2.91378 3.29255,-2.92755c-0.0515,-0.01376 2.46161,-2.85984 2.41011,-2.87359c-0.0515,-0.01376 2.09083,-3.416 2.03933,-3.42978c-0.0515,-0.01376 1.44195,-4.34299 1.44195,-4.34299c0,0 0.92695,-4.35675 0.87545,-4.37049c-0.0515,-0.01376 -0.59739,-4.25029 -0.64889,-4.26405c-0.0515,-0.01376 -1.15356,-3.87949 -1.20505,-3.89325c-0.0515,-0.01376 -2.91479,-2.95254 -2.9663,-2.9663c-0.0515,-0.01376 -3.37828,-2.39635 -3.42978,-2.41011c-0.0515,-0.01376 -3.93445,-1.37669 -3.93445,-1.37669c0,0 -6.11798,-0.27809 -6.11798,-0.27809l-0.00004,0l0.00003,-0.00001l0.00001,0z"/>
  <path id="svg_112" stroke="#0000ff" fill="none" stroke-width="3" stroke-dasharray="null" stroke-linejoin="null" stroke-linecap="null" d="m66.4128,44.31625c-0.43995,-0.08798 -2.35978,0.54205 -2.35978,0.54205c0,0 -2.03933,1.11236 -2.03933,1.11236c0,0 -1.66855,1.76124 -1.66855,1.76124c0,0 -0.92695,1.66855 -0.92695,1.66855c0,0 -0.18539,2.31741 -0.18539,2.31741c0,0 0.3708,1.66855 0.3708,1.66855c0,0 0.83426,0.92695 0.83426,0.92695c0,0 2.2247,0.64889 2.2247,0.64889c0,0 2.5955,-0.74156 2.5955,-0.74156c0,0 1.76124,-1.39045 1.76124,-1.39045c0,0 1.11236,-1.85394 1.11236,-1.85394c0,0 0.46349,-2.31741 0.46349,-2.31741c0,0 0.18539,-1.85394 0.18539,-1.85394c0,0 -0.34617,-1.19457 -0.43415,-1.3412c-0.08798,-0.14666 -1.49365,-1.0595 -1.93358,-1.14749l-0.00001,-0.00001z"/>
  <path id="svg_113" stroke="#0000ff" fill="none" stroke-width="3" stroke-dasharray="null" stroke-linejoin="null" stroke-linecap="null" d="m25.95472,73.98565c0,0 10.75281,-3.70786 10.75281,-3.70786c0,0 9.14606,-1.97753 9.14606,-1.97753"/>
  <path id="svg_114" stroke="#0000ff" fill="none" stroke-width="3" stroke-dasharray="null" stroke-linejoin="null" stroke-linecap="null" d="m71.56148,66.8171c0,0 22.618,-1.73033 22.618,-1.73033c0,0 20.02247,-0.24718 20.02247,-0.24718c0,0 19.89888,1.11236 19.89888,1.11236c0,0 20.02247,2.9663 20.02247,2.9663c0,0 16.68541,4.32585 16.68541,4.32585c0,0 12.35956,5.68538 12.35956,5.68538"/>
  <path id="svg_115" stroke="#0000ff" fill="none" stroke-width="3" stroke-dasharray="null" stroke-linejoin="null" stroke-linecap="null" d="m174.14574,56.02311c0,0 -10.38203,-2.14231 -10.38203,-2.14231c0,0 -13.51311,-2.6367 -13.51311,-2.6367c0,0 -17.13859,-2.9663 -17.13859,-2.9663c0,0 -14.66668,-1.31835 -14.66668,-1.31835c0,0 -14.33708,-0.65917 -14.33708,-0.65917c0,0 -10.38203,0 -10.38203,0c0,0 -7.41573,0.3296 -7.41573,0.3296"/>
  <path id="svg_116" stroke="#0000ff" fill="none" stroke-width="3" stroke-dasharray="null" stroke-linejoin="null" stroke-linecap="null" d="m44.288,51.24408c0,0 -5.27342,0.98877 -5.27342,0.98877c0,0 -4.94382,2.14231 -4.94382,2.14231"/>
  <path id="svg_117" stroke="#0000ff" fill="none" stroke-width="3" stroke-dasharray="null" stroke-linejoin="null" stroke-linecap="null" d="m154.04086,33.28153c0,0 -12.19477,-2.80151 -12.19477,-2.80151c0,0 -15.82024,-1.81274 -15.82024,-1.81274c0,0 -12.02996,-1.15356 -12.02996,-1.15356c0,0 -14.00749,-0.82398 -14.00749,-0.82398c0,0 -10.63904,0.20664 -10.88205,0.22064c-0.24301,0.014 -12.51873,0.60334 -12.51873,0.60334c0,0 -10.21724,0.49438 -10.21724,0.49438c0,0 -9.06366,1.64793 -9.06366,1.64793"/>
  <path id="svg_118" stroke="#0000ff" fill="none" stroke-width="3" stroke-dasharray="null" stroke-linejoin="null" stroke-linecap="null" d="m114.20194,16.51372c0,0 7.04494,6.67415 7.04494,6.67415c0,0 7.04494,10.25844 7.04494,10.25844c0,0 5.06741,10.75281 5.06741,10.75281c0,0 2.9663,10.87641 2.9663,10.87641c0,0 1.11236,11.2472 1.11236,11.2472"/>
  <path id="svg_119" stroke="#0000ff" fill="none" stroke-width="3" stroke-dasharray="null" stroke-linejoin="null" stroke-linecap="null" d="m95.53903,15.89573c0,0 -0.61797,7.41573 -0.61797,7.41573c0,0 -0.98877,11.74158 -0.98877,11.74158c0,0 -0.61797,8.15732 -0.61797,8.15732c0,0 -0.74156,12.23597 -0.74156,12.23597c0,0 0.61797,9.14606 0.61797,9.14606"/>
  <path id="svg_120" stroke="#0000ff" fill="none" stroke-width="3" stroke-dasharray="null" stroke-linejoin="null" stroke-linecap="null" d="m136.07831,87.99315c0,0 -0.49438,12.4173 -0.49438,12.4173c0,0 -1.81274,16.72198 -1.81274,16.72198c0,0 -3.13108,14.90079 -3.13108,14.90079c0,0 -4.11984,15.23192 -4.11984,15.23192c0,0 -4.28465,11.58949 -4.28465,11.58949"/>
  <path id="svg_121" stroke="#0000ff" fill="none" stroke-width="3" stroke-dasharray="null" stroke-linejoin="null" stroke-linecap="null" d="m94.5502,86.01562c0,0 -0.49438,13.8427 -0.49438,13.8427c0,0 -0.3296,12.68915 -0.3296,12.68915c0,0 0.65917,17.63297 0.65917,17.63297c0,0 1.15356,16.64421 1.15356,16.64421c0,0 2.80151,11.86517 2.80151,11.86517"/>
  <path id="svg_122" stroke="#0000ff" fill="none" stroke-width="3" stroke-dasharray="null" stroke-linejoin="null" stroke-linecap="null" d="m53.18687,89.6411c0,0 -0.3296,12.44538 -0.3296,12.44538c0,0 2.9663,16.4279 2.9663,16.4279c0,0 4.44944,15.26634 4.44944,15.26634c0,0 7.41573,14.10476 7.41573,14.10476c0,0 5.27342,8.13098 5.27342,8.13098c0,0 4.28465,5.31003 4.28465,5.31003"/>
  <path id="svg_123" stroke="#0000ff" fill="none" stroke-width="3" stroke-dasharray="null" stroke-linejoin="null" stroke-linecap="null" d="m165.24693,44.32272c0,0 6.92135,14.27151 6.92135,14.27151c0,0 2.34832,9.5557 2.34832,9.5557c0,0 0.3708,6.57731 0.3708,6.57731"/>
  <path id="svg_124" stroke="#0000ff" fill="none" stroke-width="3" stroke-dasharray="null" stroke-linejoin="null" stroke-linecap="null" d="m172.49781,92.88201c0,0 -1.09862,14.72162 -1.09862,14.72162c0,0 -2.85643,14.28216 -2.85643,14.28216c0,0 -6.37204,15.38078 -6.37204,15.38078c0,0 -7.6904,11.64546 -7.6904,11.64546c0,0 -11.86517,13.40325 -11.86517,13.40325"/>
 </g>
</svg>