<svg width="8950" height="10190" xmlns="http://www.w3.org/2000/svg" preserveAspectRatio="xMidYMid meet">
  <title>camada 1</title>
  <g display="inline">
    <line fill="none" stroke-width="50" x1="1817.84111" y1="4553.3521" x2="1681.15952" y2="5090.71407" id="svg_39" stroke="#0000ff"/>
    <line fill="none" stroke-width="50" x1="1699.61523" y1="5078.07208" x2="496.67673" y2="5498.61285" id="svg_40" stroke="#0000ff"/>
    <line fill="none" stroke-width="50" x1="518.80015" y1="5500.75867" x2="659.14948" y2="1696.57791" id="svg_41" stroke="#0000ff"/>
    <line fill="none" stroke="#0000ff" stroke-width="50" x1="649.16076" y1="1706.56663" x2="1817.84111" y2="4563.34082" id="svg_42"/>
    <line fill="none" stroke-width="50" x1="2886.63425" y1="4773.10396" x2="3802.04595" y2="4378.74461" id="svg_43" stroke="#0000ff"/>
    <line fill="none" stroke="#0000ff" stroke-width="50" x1="2517.05157" y1="4153.80326" x2="2886.63425" y2="4803.07012" id="svg_44"/>
    <line fill="none" stroke="#0000ff" stroke-width="50" x1="2517.05157" y1="4163.79198" x2="2876.64553" y2="1646.63431" id="svg_45"/>
    <line fill="none" stroke="#0000ff" stroke-width="50" x1="2866.65681" y1="1676.60047" x2="3635.78832" y2="4423.49873" id="svg_47"/>
    <line fill="none" stroke="#0000ff" stroke-width="50" x1="744.05395" y1="1399.41381" x2="2062.56516" y2="4313.62323" id="svg_48"/>
    <line fill="none" stroke="#0000ff" stroke-width="50" x1="736.56241" y1="1399.41381" x2="2766.77" y2="1496.80384" id="svg_49"/>
    <line fill="none" stroke="#0000ff" stroke-width="50" x1="2744.29538" y1="1481.82076" x2="2294.80293" y2="4163.79241" id="svg_50"/>
    <line fill="none" stroke="#0000ff" stroke-width="50" x1="2062.56516" y1="4298.64015" x2="2287.31138" y2="4148.80933" id="svg_52"/>
    <line fill="none" stroke="#0000ff" stroke-width="50" x1="479.35251" y1="5901.82942" x2="1538.15692" y2="8688.68256" id="svg_53"/>
    <line fill="none" stroke="#0000ff" stroke-width="50" x1="479.35251" y1="5911.81814" x2="1668.0103" y2="5532.24675" id="svg_55"/>
    <line fill="none" stroke="#0000ff" stroke-width="50" x1="1658.02157" y1="5532.24675" x2="1967.67192" y2="6051.66024" id="svg_56"/>
    <line fill="none" stroke="#0000ff" stroke-width="50" x1="1518.17948" y1="8648.72768" x2="1967.67192" y2="6041.67152" id="svg_57"/>
    <line fill="none" stroke="#0000ff" stroke-width="50" x1="2237.36739" y1="6101.60384" x2="1797.86367" y2="9178.12989" id="svg_58"/>
    <line fill="none" stroke="#0000ff" stroke-width="50" x1="1797.86367" y1="9148.16373" x2="3426.02518" y2="8029.42698" id="svg_59"/>
    <line fill="none" stroke="#0000ff" stroke-width="50" x1="2227.37867" y1="6111.59256" x2="2616.93878" y2="5961.76175" id="svg_60"/>
    <line fill="none" stroke="#0000ff" stroke-width="50" x1="2606.95006" y1="5951.77303" x2="3455.99134" y2="8039.4157" id="svg_62"/>
    <line fill="none" stroke="#0000ff" stroke-width="50" x1="2976.53274" y1="5492.29186" x2="2856.66809" y2="5951.77303" id="svg_63"/>
    <line fill="none" stroke="#0000ff" stroke-width="50" x1="2846.67937" y1="5931.79558" x2="3505.93495" y2="7809.67512" id="svg_64"/>
    <line fill="none" stroke="#0000ff" stroke-width="50" stroke-dasharray="null" stroke-linejoin="null" stroke-linecap="null" x1="3490" y1="7770" x2="3550" y2="5610" id="svg_23"/>
    <line fill="none" stroke-width="50" stroke-dasharray="null" stroke-linejoin="null" stroke-linecap="null" x1="2970" y1="5470" x2="3733.20991" y2="5665.28395" id="svg_25" stroke="#0000ff"/>
    <line fill="none" stroke-width="50" stroke-dasharray="null" stroke-linejoin="null" stroke-linecap="null" x1="2850" y1="4770" x2="2390" y2="4770" id="svg_31" stroke="#0000ff"/>
    <line fill="none" stroke="#0000ff" stroke-width="50" stroke-dasharray="null" stroke-linejoin="null" stroke-linecap="null" x1="2970" y1="5470" x2="2600" y2="5680" id="svg_32"/>
    <line fill="none" stroke="#0000ff" stroke-width="50" stroke-dasharray="null" stroke-linejoin="null" stroke-linecap="null" x1="2400" y1="4770" x2="2170" y2="5220" id="svg_33"/>
    <path fill="none" stroke-width="50" stroke-dasharray="null" stroke-linejoin="null" stroke-linecap="null" d="m2182.42981,5197.62506c-67.42387,501.93324 434.50937,471.96708 432.11797,465.97988" id="svg_17" stroke="#0000ff"/>
    <path fill="none" stroke="#0000ff" stroke-width="50" stroke-dasharray="null" stroke-linejoin="null" stroke-linecap="null" d="m2976.53315,5452.33745c-329.6278,-239.72931 -82.40695,-651.76406 -84.79835,-657.75126" id="svg_18"/>
    <line fill="none" stroke="#0000ff" stroke-width="50" stroke-dasharray="null" stroke-linejoin="null" stroke-linecap="null" x1="2189.92135" y1="5212.60814" x2="2819.21079" y2="5182.64198" id="svg_20"/>
    <line fill="none" stroke-width="50" stroke-dasharray="null" stroke-linejoin="null" stroke-linecap="null" x1="3755.65341" y1="5714.54138" x2="3635.78875" y2="8104.34294" id="svg_21" stroke="#0000ff"/>
    <line fill="none" stroke-width="50" stroke-dasharray="null" stroke-linejoin="null" stroke-linecap="null" x1="3655.13219" y1="8087.45764" x2="1652.43247" y2="9519.10292" id="svg_22" stroke="#0000ff"/>
    <line fill="none" stroke-width="50" stroke-dasharray="null" stroke-linejoin="null" stroke-linecap="null" x1="1676.37039" y1="9503.03682" x2="345.71459" y2="6000.24487" id="svg_24" stroke="#0000ff"/>
    <line fill="none" stroke-width="50" stroke-dasharray="null" stroke-linejoin="null" stroke-linecap="null" x1="354.49384" y1="6004.36987" x2="510.6455" y2="1175.83807" id="svg_26" stroke="#0000ff"/>
    <line fill="none" stroke-width="50" stroke-dasharray="null" stroke-linejoin="null" stroke-linecap="null" x1="503.03702" y1="1213.06174" x2="2936.61718" y2="1301.55557" id="svg_27" stroke="#0000ff"/>
    <line fill="none" stroke-width="50" stroke-dasharray="null" stroke-linejoin="null" stroke-linecap="null" x1="2908.17283" y1="1301.55557" x2="3808.91362" y2="4408.32082" id="svg_28" stroke="#0000ff"/>
    <path fill="none" stroke="#0000ff" stroke-width="50" stroke-dasharray="null" stroke-linejoin="null" stroke-linecap="null" d="m6006.86145,4474.69136c-309.02606,-39.33059 -500.06035,-275.31413 -500.06035,-275.31413" id="svg_30"/>
    <path fill="none" stroke="#0000ff" stroke-width="50" stroke-dasharray="null" stroke-linejoin="null" stroke-linecap="null" d="m5501.18244,4193.75857c-642.67276,-486.16979 -1557.148,-235.94452 -1776.31459,371.41656c-219.16659,607.36108 -128.76085,939.25194 195.59946,1329.86556c324.36031,390.61362 732.8834,434.62644 1092.59442,351.4001c359.71102,-83.22634 578.0192,-329.6278 712.86694,-539.39095" id="svg_35"/>
    <path id="svg_29" d="m3620.33745,5022.51029c130.63375,-429.82716 450.89712,-539.39095 695.30864,-501.46502c244.41152,37.92593 568.8889,307.6214 589.95885,632.09876c21.06995,324.47736 8.42798,606.81482 -269.69547,788.01646c-278.12345,181.20164 -546.41427,75.85186 -630.69411,46.35391" stroke-linecap="null" stroke-linejoin="null" stroke-dasharray="null" stroke-width="50" stroke="#0000ff" fill="none"/>
    <path id="svg_34" d="m5529.27572,5945.37449c-425.61317,4.21399 -674.23868,-134.84774 -1134.0823,-492.46914" stroke-linecap="null" stroke-linejoin="null" stroke-dasharray="null" stroke-width="50" stroke="#0000ff" fill="none"/>
    <line id="svg_36" y2="5296.41975" x2="3991.16872" y1="5292.20576" x1="3654.04938" stroke-linecap="null" stroke-linejoin="null" stroke-dasharray="null" stroke-width="50" stroke="#0000ff" fill="none"/>
    <line id="svg_37" y2="5060.43621" x2="4033.30864" y1="4761.2428" x1="3759.39918" stroke-linecap="null" stroke-linejoin="null" stroke-dasharray="null" stroke-width="50" stroke="#0000ff" fill="none"/>
    <line stroke="#0000ff" id="svg_38" y2="5502.90536" x2="4100.73252" y1="5814.7407" x1="3864.74897" stroke-linecap="null" stroke-linejoin="null" stroke-dasharray="null" stroke-width="50" fill="none"/>
    <line id="svg_46" y2="5553.47325" x2="4260.8642" y1="6021.22634" x1="4429.42387" stroke-linecap="null" stroke-linejoin="null" stroke-dasharray="null" stroke-width="50" stroke="#0000ff" fill="none"/>
    <line id="svg_51" y2="4934.01646" x2="4147.08642" y1="4529.47325" x1="4109.16049" stroke-linecap="null" stroke-linejoin="null" stroke-dasharray="null" stroke-width="50" stroke="#0000ff" fill="none"/>
    <path id="svg_61" d="m4370.42798,5224.78189c290.76544,88.49383 526.74897,-12.64197 526.23046,-16.28806" stroke-linecap="null" stroke-linejoin="null" stroke-dasharray="null" stroke-width="50" stroke="#0000ff" fill="none"/>
    <path id="svg_65" d="m4332.50206,5081.50617c434.04115,-686.88066 1150.41975,-893.36625 1149.90123,-897.01234" stroke-linecap="null" stroke-linejoin="null" stroke-dasharray="null" stroke-width="50" stroke="#0000ff" fill="none"/>
    <ellipse stroke="#0000ff" ry="292.87248" rx="210.17287" id="svg_66" cy="5243.74487" cx="4206.60914" stroke-linecap="null" stroke-linejoin="null" stroke-dasharray="null" stroke-width="50" fill="#0000ff"/>
    <line id="svg_67" y2="4643.25103" x2="5638.83951" y1="4179.71193" x1="5457.63786" stroke-linecap="null" stroke-linejoin="null" stroke-dasharray="null" stroke-width="50" stroke="#0000ff" fill="none"/>
    <line id="svg_68" y2="4710.6749" x2="6064.45267" y1="4613.75309" x1="5626.19753" stroke-linecap="null" stroke-linejoin="null" stroke-dasharray="null" stroke-width="50" stroke="#0000ff" fill="none"/>
    <line id="svg_69" y2="5637.75309" x2="6110.80658" y1="4453.6214" x1="6001.2428" stroke-linecap="null" stroke-linejoin="null" stroke-dasharray="null" stroke-width="50" stroke="#0000ff" fill="none"/>
    <line id="svg_70" y2="5709.39095" x2="5702.04938" y1="5599.82716" x1="6098.16461" stroke-linecap="null" stroke-linejoin="null" stroke-dasharray="null" stroke-width="50" stroke="#0000ff" fill="none"/>
    <path id="svg_72" d="m5723.11934,5692.53498c-210.69959,-564.6749 -92.70782,-1078.78189 -93.22634,-1082.42798" stroke-linecap="null" stroke-linejoin="null" stroke-dasharray="null" stroke-width="50" stroke="#0000ff" fill="none"/>
    <path id="svg_74" d="m6482.5743,672.73434l1271.17055,233.74211l-187.28852,3138.95565c0,0 -65.03246,20.97028 -65.03246,20.97028c0,0 -1018.84957,-3393.66804 -1018.84957,-3393.66804z" stroke-linecap="null" stroke-linejoin="null" stroke-dasharray="null" stroke-width="50" stroke="#0000ff" fill="none"/>
    <path id="svg_75" d="m7943.42478,1691.5839c0,0 516.91632,2704.44627 514.52492,2698.45908c-2.3914,-5.9872 -492.0503,140.83493 -494.4417,134.84774c-2.3914,-5.9872 -147.43941,-338.62369 -149.83082,-344.61088c-2.3914,-5.9872 129.7476,-2488.69593 129.7476,-2488.69593z" stroke-linecap="null" stroke-linejoin="null" stroke-dasharray="null" stroke-width="50" stroke="#0000ff" fill="none"/>
    <path id="svg_76" d="m6355.21811,845.03978l941.54275,3432.63009c0,0 -87.50709,575.34431 -87.50709,575.34431c0,0 -966.40878,479.45862 -968.80018,473.47142c-2.3914,-5.9872 114.76452,-4481.44582 114.76452,-4481.44582z" stroke-linecap="null" stroke-linejoin="null" stroke-dasharray="null" stroke-width="50" stroke="#0000ff" fill="none"/>
    <path id="svg_77" d="m6317.7604,5707.04984c0,0 891.49337,-352.10242 889.10197,-358.08962c-2.3914,-5.9872 152.22222,605.31047 149.83082,599.32327c-2.3914,-5.9872 -327.2364,3332.23137 -329.6278,3326.24417c-2.3914,-5.9872 -709.30498,-3567.47782 -709.30498,-3567.47782z" stroke-linecap="null" stroke-linejoin="null" stroke-dasharray="null" stroke-width="50" stroke="#0000ff" fill="none"/>
    <path id="svg_78" d="m7598.8139,5984.23685l117.47325,-28.46182l576.84865,2562.107l-996.37494,981.39186l302.05304,-3515.03704z" stroke-linecap="null" stroke-linejoin="null" stroke-dasharray="null" stroke-width="50" stroke="#0000ff" fill="none"/>
    <path id="svg_79" d="m7988.37403,5077.7604l454.59259,-328.12346c0,0 -109.98171,3159.92593 -102.49017,3159.92593c7.49154,0 -449.49246,-2022.71605 -451.88386,-2028.70325c-2.3914,-5.9872 99.78144,-803.09922 99.78144,-803.09922z" stroke-linecap="null" stroke-linejoin="null" stroke-dasharray="null" stroke-width="50" stroke="#0000ff" fill="none"/>
    <path id="svg_80" d="m5995.62414,4463.45405l184.89712,-4028.94467l1670.61363,299.66164l801.59488,3610.92273l-232.23777,4262.68679l-1408.40969,1415.90123l-906.47645,-4420.00914" stroke-linecap="null" stroke-linejoin="null" stroke-dasharray="null" stroke-width="50" stroke="#0000ff" fill="none"/>
  </g>
</svg>