<?xml version="1.0"?>
<svg width="660" height="500" xmlns="http://www.w3.org/2000/svg">
  <!-- Created with SVG-edit - http://svg-edit.googlecode.com/ -->
  <g>
    <title>Layer 1</title>
    <g stroke="null" id="svg_1">
      <path stroke="#0000bf" fill="none" stroke-width="2" d="m173.133655,263.263597l-26.214575,-73.21863l-57.961469,0.852374l2.130936,116.349126l35.799731,82.254143l45.602038,-34.947356l0,-57.961469" id="svg_158"/>
      <path stroke="#0000bf" fill="none" stroke-width="2" d="m168.871782,265.327941l-21.952703,-65.480668l-5.114247,58.813844l8.703543,14.916554" id="svg_159"/>
      <path stroke="#0000bf" fill="none" stroke-width="2" d="m144.15292,195.49982c0,0 -7.245184,63.928091 -7.245184,63.928091c0,0 -5.114247,4.68806 -5.331399,4.347453c-0.217152,-0.340607 -35.156392,-67.849357 -35.156392,-67.849357c0,0 47.732974,-0.426187 47.732974,-0.426187l0.000001,0z" id="svg_160"/>
      <path stroke="#0000bf" fill="none" stroke-width="2" d="m124.974493,268.377844c0,0 -31.111671,-63.928091 -31.328823,-64.268698c-0.217152,-0.340607 1.495713,90.266121 1.278562,89.925514c-0.217152,-0.340607 26.640763,-10.314076 26.640763,-10.314076c0,0 3.409498,-15.342742 3.409498,-15.342742l0,0.000001z" id="svg_161"/>
      <path stroke="#0000bf" fill="none" stroke-width="2" d="m122.843556,293.94908c0,0 -27.702173,11.080869 -27.702173,11.080869c0,0 27.702173,65.206653 27.485021,64.866046c-0.217152,-0.340607 7.462335,-64.439859 7.462335,-64.439859c0,0 -7.245184,-11.507056 -7.245184,-11.507056z" id="svg_162"/>
      <path stroke="#0000bf" fill="none" stroke-width="2" d="m137.333924,308.01326c0,0 -7.671371,73.304211 -7.671371,73.304211c0,0 37.930667,-28.12836 37.713516,-28.468967c-0.217152,-0.340607 -22.370774,-48.67093 -22.587926,-49.011537c-0.217152,-0.340607 -7.45422,4.176292 -7.45422,4.176292l0.000001,0z" id="svg_163"/>
      <path stroke="#0000bf" fill="none" stroke-width="2" d="m168.019407,293.94908l0.635223,51.654241l-17.899866,-43.044914l4.68806,-11.080869" id="svg_164"/>
      <path stroke="#0000bf" id="svg_165" d="m226.407064,166.519086l2.339972,124.106077l28.12836,105.268256l31.964046,-33.668794l1.704749,-104.415882l-23.4403,-86.516017l-40.696827,-4.773641l0.000001,0z" stroke-linecap="null" stroke-linejoin="null" stroke-dasharray="null" stroke-width="2" fill="none"/>
      <path stroke="#0000bf" id="svg_166" d="m231.095124,177.173767l1.487597,105.780024c0,0 22.805077,-10.314076 22.805077,-10.314076c0,0 2.130936,-14.916554 1.913785,-15.257161c-0.217152,-0.340607 -26.20646,-80.208788 -26.20646,-80.208788l0.000001,0.000001z" stroke-linecap="null" stroke-linejoin="null" stroke-dasharray="null" stroke-width="2" fill="none"/>
      <path stroke="#0000bf" id="svg_167" d="m233.652247,172.911895c0,0 27.702173,79.69702 27.702173,79.69702c0,0 3.409498,-2.557124 3.409498,-2.557124c0,0 0,-72.878024 -0.217152,-73.21863c-0.217152,-0.340607 -30.89452,-3.921266 -30.89452,-3.921266l0,0.000001z" stroke-linecap="null" stroke-linejoin="null" stroke-dasharray="null" stroke-width="2" fill="none"/>
      <path stroke="#0000bf" id="svg_168" d="m269.451978,195.49982c0,0 0.426187,60.518593 0.209036,60.177986c-0.217152,-0.340607 3.62665,8.011977 3.409498,7.671371c-0.217152,-0.340607 12.150395,-4.347453 12.150395,-4.347453c0,0 -15.768929,-63.501904 -15.768929,-63.501904l-0.000001,0z" stroke-linecap="null" stroke-linejoin="null" stroke-dasharray="null" stroke-width="2" fill="none"/>
      <path stroke="#0000bf" id="svg_170" d="m285.647095,267.951657c0,0 -10.654682,8.097558 -10.654682,8.097558c0,0 -1.278562,18.75224 -1.495713,18.411633c-0.217152,-0.340607 12.150395,49.77833 11.933244,49.437724c-0.217152,-0.340607 0.217152,-75.946915 0.217152,-75.946915l-0.000001,0z" stroke-linecap="null" stroke-linejoin="null" stroke-dasharray="null" stroke-width="2" fill="none"/>
      <path stroke="#0000bf" id="svg_173" d="m268.999154,297.838039l-3.759833,1.71042l-2.876764,84.864541l23.733304,-25.171686l-17.096706,-61.403274l-0.000001,0z" stroke-linecap="null" stroke-linejoin="null" stroke-dasharray="null" stroke-width="2" fill="none"/>
      <path stroke="#0000bf" id="svg_176" d="m260.608593,297.678219c0,0 -4.474966,-13.744539 -4.479024,-13.872052c-0.004058,-0.127513 -20.772572,9.716727 -20.77663,9.589214c-0.004058,-0.127513 20.780687,86.430435 20.77663,86.302923c-0.004058,-0.127513 4.479024,-82.020084 4.479024,-82.020084z" stroke-linecap="null" stroke-linejoin="null" stroke-dasharray="null" stroke-width="2" fill="none"/>
      <path stroke="#0000bf" id="svg_178" d="m228.185064,263.916196c0,0 -3.775753,0 -3.879698,-0.14749c-0.103946,-0.14749 -3.132414,-1.290892 -3.23636,-1.438382c-0.103946,-0.14749 -3.312212,-2.369678 -3.416157,-2.517168c-0.103946,-0.14749 -4.390999,-2.729274 -4.390999,-2.729274c0,0 -3.95555,-2.157573 -4.135348,-2.157573c-0.179798,0 -4.494944,-1.61818 -4.59889,-1.76567c-0.103946,-0.14749 -5.110189,-0.751499 -5.214135,-0.898989c-0.103946,-0.14749 -4.750594,-0.032307 -4.750594,-0.032307c0,0 -4.135348,0.719191 -4.135348,0.719191c0,0 -4.315146,1.258584 -4.419092,1.111094c-0.103946,-0.14749 -3.49201,1.76567 -3.595955,1.61818c-0.103946,-0.14749 -3.312212,2.305063 -3.312212,2.305063c0,0 -2.337371,2.337371 -2.517168,2.337371c-0.179798,0 -2.337371,2.337371 -2.337371,2.337371c0,0 -2.157573,3.056562 -2.157573,3.056562c0,0 -1.61818,3.595955 -1.722125,3.448465c-0.103946,-0.14749 -1.154639,3.743446 -1.258584,3.595955c-0.103946,-0.14749 -0.615245,3.563648 -0.719191,3.416157c-0.103946,-0.14749 -0.075852,3.743446 -0.075852,3.743446c0,0 0.179798,3.595955 0.179798,3.595955c0,0 1.078786,4.135348 0.974841,3.987858c-0.103946,-0.14749 0.823137,3.204052 0.823137,3.204052c0,0 0.898989,2.876764 0.898989,2.876764c0,0 1.438382,2.696966 1.438382,2.696966c0,0 1.977775,2.517168 1.977775,2.517168c0,0 2.337371,2.157573 2.233425,2.010083c-0.103946,-0.14749 2.261519,2.305063 2.261519,2.305063c0,0 2.696966,2.157573 2.696966,2.157573c0,0 2.517168,1.438382 2.517168,1.438382c0,0 2.696966,1.258584 2.696966,1.258584c0,0 2.696966,0.539393 2.696966,0.539393c0,0 2.876764,0.539393 2.876764,0.539393c0,0 3.23636,0.179798 3.23636,0.179798c0,0 2.696966,0 2.696966,0c0,0 3.23636,-0.179798 3.132414,-0.327288c-0.103946,-0.14749 3.340305,-0.571701 3.23636,-0.719191c-0.103946,-0.14749 2.800912,-0.931296 2.800912,-0.931296c0,0 1.797978,-1.258584 1.797978,-1.258584c0,0 2.157573,-1.078786 2.053628,-1.226277c-0.103946,-0.14749 2.081721,-1.650487 1.977775,-1.797978c-0.103946,-0.14749 2.081721,-1.650487 2.081721,-1.650487c0,0 1.438382,-1.438382 1.334436,-1.585872c-0.103946,-0.14749 1.722125,-2.010083 1.61818,-2.157573c-0.103946,-0.14749 1.36253,-2.010083 1.36253,-2.010083c0,0 1.078786,-1.438382 0.974841,-1.585872c-0.103946,-0.14749 2.98071,-0.571701 2.876764,-0.719191c-0.103946,-0.14749 2.621114,-0.391903 2.621114,-0.391903c0,0 2.337371,-0.719191 2.337371,-0.719191" stroke-linecap="null" stroke-linejoin="null" stroke-dasharray="null" stroke-width="2" fill="none"/>
      <path stroke="#0000bf" id="svg_179" d="m172.267962,264.994982c0,0 -20.676742,10.068674 -20.676742,10.068674c0,0 -12.226247,0.898989 -12.226247,0.898989c0,0 -2.517168,3.595955 -2.621114,3.448465c-0.103946,-0.14749 -1.514234,3.743446 -1.61818,3.595955c-0.103946,-0.14749 -0.615245,3.743446 -0.615245,3.743446c0,0 0.719191,3.23636 0.615245,3.088869c-0.103946,-0.14749 1.722125,3.204052 1.61818,3.056562c-0.103946,-0.14749 2.261519,2.484861 2.157573,2.337371c-0.103946,-0.14749 3.160508,1.226277 3.056562,1.078786c-0.103946,-0.14749 3.520103,1.046479 3.520103,1.046479c0,0 9.529281,-5.933326 9.529281,-5.933326c0,0 17.080787,3.95555 16.976841,3.80806" stroke-linecap="null" stroke-linejoin="null" stroke-dasharray="null" stroke-width="2" fill="none"/>
      <path stroke="#0000bf" id="svg_180" d="m212.902255,257.623274c0,0 1.078786,4.674742 1.078786,4.674742c0,0 1.438382,2.337371 1.334436,2.189881c-0.103946,-0.14749 2.441316,3.38385 2.337371,3.23636c-0.103946,-0.14749 -0.435448,5.541423 -0.435448,5.541423c0,0 -0.179798,4.494944 -0.283743,4.347453c-0.103946,-0.14749 0.463541,3.743446 0.359596,3.595955c-0.103946,-0.14749 0.643339,3.38385 0.539393,3.23636c-0.103946,-0.14749 0.643339,2.844457 0.539393,2.696966c-0.103946,-0.14749 1.002934,3.024254 0.898989,2.876764c-0.103946,-0.14749 1.182732,3.38385 1.078786,3.23636" stroke-linecap="null" stroke-linejoin="null" stroke-dasharray="null" stroke-width="2" fill="none"/>
      <path stroke="#0000bf" id="svg_181" d="m227.465873,269.130331c0,0 -9.529281,-1.258584 -9.529281,-1.258584c0,0 9.529281,1.258584 9.529281,1.258584z" stroke-linecap="null" stroke-linejoin="null" stroke-dasharray="null" stroke-width="2" fill="none"/>
      <path stroke="#0000bf" id="svg_183" d="m188.629558,283.873747c0,0 -0.719191,-2.337371 -0.719191,-2.337371c0,0 -1.61818,-2.157573 -1.722125,-2.305063c-0.103946,-0.14749 -1.87383,-1.470689 -1.977775,-1.61818c-0.103946,-0.14749 -2.413223,-0.391903 -2.517168,-0.539393c-0.103946,-0.14749 -2.053628,1.76567 -2.157573,1.61818c-0.103946,-0.14749 -0.974841,2.664659 -1.078786,2.517168c-0.103946,-0.14749 -0.25565,3.204052 -0.359596,3.056562c-0.103946,-0.14749 1.002934,2.844457 0.898989,2.696966c-0.103946,-0.14749 1.002934,2.305063 0.898989,2.157573c-0.103946,-0.14749 1.901923,2.484861 1.901923,2.484861c0,0 2.157573,1.078786 2.053628,0.931296c-0.103946,-0.14749 1.901923,-0.391903 1.797978,-0.539393c-0.103946,-0.14749 2.081721,-1.111094 1.977775,-1.258584c-0.103946,-0.14749 0.823137,-1.830285 0.719191,-1.977775c-0.103946,-0.14749 0.643339,-2.189881 0.539393,-2.337371c-0.103946,-0.14749 -0.25565,-2.549476 -0.25565,-2.549476l-0.000001,-0.000001z" stroke-linecap="null" stroke-linejoin="null" stroke-dasharray="null" stroke-width="2" fill="none"/>
      <path stroke="#0000bf" id="svg_187" d="m178.920479,302.392916c0,0 3.775753,1.258584 3.775753,1.258584c0,0 3.95555,0 3.95555,0c0,0 3.595955,-0.359596 3.49201,-0.507086c-0.103946,-0.14749 4.059496,-1.650487 3.95555,-1.797978c-0.103946,-0.14749 2.441316,-2.189881 2.337371,-2.337371c-0.103946,-0.14749 2.081721,-2.549476 1.977775,-2.696966c-0.103946,-0.14749 1.542328,-3.448465 1.542328,-3.448465c0,0 0.719191,-3.23636 0.615245,-3.38385c-0.103946,-0.14749 0.463541,-3.628263 0.359596,-3.775753c-0.103946,-0.14749 -0.435448,-4.167656 -0.435448,-4.167656c0,0 -0.898989,-3.95555 -0.898989,-3.95555c0,0 -1.61818,-3.416157 -1.722125,-3.563648c-0.103946,-0.14749 -2.772818,-3.448465 -2.876764,-3.595955c-0.103946,-0.14749 -3.49201,-1.830285 -3.49201,-1.830285c0,0 -3.416157,-1.61818 -3.416157,-1.61818c0,0 -3.23636,-0.539393 -3.23636,-0.539393c0,0 -3.23636,0 -3.23636,0c0,0 -3.056562,1.078786 -3.056562,1.078786c0,0 -2.517168,1.078786 -2.517168,1.078786c0,0 -1.797978,1.438382 -1.901923,1.290892c-0.103946,-0.14749 -1.154639,2.305063 -1.258584,2.157573c-0.103946,-0.14749 -1.154639,2.125265 -1.258584,1.977775c-0.103946,-0.14749 -0.795043,2.125265 -0.795043,2.125265c0,0 -1.078786,1.977775 -1.182732,1.830285c-0.103946,-0.14749 -0.795043,2.664659 -0.898989,2.517168" stroke-linecap="null" stroke-linejoin="null" stroke-dasharray="null" stroke-width="2" fill="none"/>
      <path stroke="#0000bf" id="svg_193" d="m212.542659,258.342465l-4.778687,1.290892c0,0 -6.548571,3.923243 -6.548571,3.923243c0,0 -3.23636,2.696966 -3.340305,2.549476c-0.103946,-0.14749 -3.49201,3.743446 -3.49201,3.743446c0,0 -4.315146,5.393932 -4.419092,5.246442c-0.103946,-0.14749 -2.593021,4.642434 -2.593021,4.642434" stroke-linecap="null" stroke-linejoin="null" stroke-dasharray="null" stroke-width="2" fill="none"/>
      <path stroke="#0000bf" id="svg_194" d="m180.538659,266.433364c0,0 0.359596,5.933326 0.25565,5.785835c-0.103946,-0.14749 1.182732,4.642434 1.078786,4.494944" stroke-linecap="null" stroke-linejoin="null" stroke-dasharray="null" stroke-width="2" fill="none"/>
      <path stroke="#0000bf" id="svg_195" d="m171.908366,273.625274l3.312212,3.987858c0,0 2.800912,2.484861 2.800912,2.484861" stroke-linecap="null" stroke-linejoin="null" stroke-dasharray="null" stroke-width="2" fill="none"/>
      <path stroke="#0000bf" id="svg_196" d="m169.2114,286.570713c0,0 4.854539,0.359596 4.854539,0.359596c0,0 3.775753,-0.359596 3.671807,-0.507086" stroke-linecap="null" stroke-linejoin="null" stroke-dasharray="null" stroke-width="2" fill="none"/>
      <path stroke="#0000bf" id="svg_197" d="m175.504321,298.617163c0.179798,-0.179798 3.23636,-3.056562 3.132414,-3.204052c-0.103946,-0.14749 2.081721,-4.167656 1.977775,-4.315146" stroke-linecap="null" stroke-linejoin="null" stroke-dasharray="null" stroke-width="2" fill="none"/>
      <path stroke="#0000bf" id="svg_199" d="m185.2134,292.144443l1.154639,4.707049l2.876764,5.753528" stroke-linecap="null" stroke-linejoin="null" stroke-dasharray="null" stroke-width="2" fill="none"/>
      <path stroke="#0000bf" id="svg_200" d="m188.269962,289.267679l4.570796,3.628263c0,0 4.958485,2.664659 4.958485,2.664659c0,0 5.753528,2.876764 5.649582,2.729274c-0.103946,-0.14749 6.756462,1.226277 6.652517,1.078786c-0.103946,-0.14749 6.217069,-0.032307 6.113124,-0.179798" stroke-linecap="null" stroke-linejoin="null" stroke-dasharray="null" stroke-width="2" fill="none"/>
      <path stroke="#0000bf" id="svg_201" d="m188.809355,284.053545c0,0 6.113124,0.179798 6.009178,0.032307c-0.103946,-0.14749 5.31808,-0.571701 5.214135,-0.719191" stroke-linecap="null" stroke-linejoin="null" stroke-dasharray="null" stroke-width="2" fill="none"/>
      <path stroke="#0000bf" id="svg_202" d="m151.411422,275.60305l-1.36253,4.527251l0,3.775753l1.797978,3.955551l3.056562,2.876764" stroke-linecap="null" stroke-linejoin="null" stroke-dasharray="null" stroke-width="2" fill="none"/>
      <path stroke="#0000bf" id="svg_203" d="m134.330635,286.03132l9.425335,-0.866681l-9.425335,0.866681z" stroke-linecap="null" stroke-linejoin="null" stroke-dasharray="null" stroke-width="2" fill="none"/>
      <path stroke="#0000bf" fill="none" stroke-width="2" stroke-dasharray="null" stroke-linejoin="null" stroke-linecap="null" d="m441.205449,60.505001l15.658324,4.347453c0,0 37.082351,-23.845521 37.082351,-23.845521c0,0 -18.219506,-2.237483 -18.223564,-2.364996c-0.004058,-0.127513 -45.065246,27.616592 -45.065246,27.616592c0,0 -16.621304,20.137349 -16.625362,20.009836c-0.004058,-0.127513 -91.413112,75.882301 -91.41717,75.754788c-0.004058,-0.127513 -8.626234,9.077446 -8.626234,9.077446c0,0 -7.03209,10.548135 -7.03209,10.548135c0,0 3.196405,3.835686 3.192347,3.708173c-0.004058,-0.127513 7.675429,2.684636 7.671371,2.557124c-0.004058,-0.127513 5.118305,-2.10997 5.114247,-2.237483c-0.004058,-0.127513 43.475159,-20.968757 43.471102,-21.09627c-0.004058,-0.127513 86.946262,-61.882736 86.942204,-62.010248c-0.004058,-0.127513 8.953991,-4.027813 8.949933,-4.155326c-0.004058,-0.127513 8.63435,-2.749251 8.63435,-2.749251" id="svg_174"/>
      <path stroke="#0000bf" fill="none" stroke-width="2" stroke-dasharray="null" stroke-linejoin="null" stroke-linecap="null" d="m456.548191,64.660328l-9.273631,5.306375l-19.498068,19.498067c0,0 -76.709651,58.941357 -76.709651,58.941357" id="svg_182"/>
      <path stroke="#0000bf" fill="none" stroke-width="2" stroke-dasharray="null" stroke-linejoin="null" stroke-linecap="null" d="m414.036011,85.436957l13.420841,4.027813l24.292674,-9.908854l4.794607,-14.703461" id="svg_184"/>
      <path stroke="#0000bf" fill="none" stroke-width="2" stroke-dasharray="null" stroke-linejoin="null" stroke-linecap="null" d="m430.976955,65.619249c0,0 17.260585,4.474966 16.940944,4.155326c-0.319641,-0.319641 3.196405,8.949933 3.196405,8.949933" id="svg_185"/>
      <path stroke="#0000bf" fill="none" stroke-width="2" stroke-dasharray="null" stroke-linejoin="null" stroke-linecap="null" d="m367.048864,163.429228c0,0 -10.228494,-10.867775 -10.228494,-10.867775c0,0 104.842069,-71.919102 104.838011,-72.046615c-0.004058,-0.127513 3.200463,8.757805 3.196405,8.630292c-0.004058,-0.127513 -100.682685,70.768053 -100.682685,70.768053" id="svg_186"/>
      <path stroke="#0000bf" fill="none" stroke-width="2" stroke-dasharray="null" stroke-linejoin="null" stroke-linecap="null" d="m439.607247,59.22644c0,0 0.319641,-5.114247 0.315583,-5.24176c-0.004058,-0.127513 -1.594144,-5.626016 -1.594144,-5.626016c0,0 -4.794607,-4.794607 -4.794607,-5.114247c0,-0.319641 -3.835686,0 -3.835686,0c0,0 -3.835686,3.516045 -3.839743,3.388532c-0.004058,-0.127513 -1.913785,4.282839 -1.917842,4.155326c-0.004058,-0.127513 -0.315583,3.963198 -0.319641,3.835686c-0.004058,-0.127513 0.323699,4.282839 0.319641,4.155326c-0.004058,-0.127513 1.28262,3.643558 1.278562,3.516045c-0.004058,-0.127513 1.28262,3.004277 1.278562,2.876764c-0.004058,-0.127513 1.9219,1.406075 1.9219,1.406075" id="svg_188"/>
      <path stroke="#0000bf" fill="none" stroke-width="2" stroke-dasharray="null" stroke-linejoin="null" stroke-linecap="null" d="m464.219562,43.883698l0.315583,-3.963198c0,0 -1.913785,-4.347453 -1.913785,-4.347453c0,0 -2.876764,-3.516045 -2.876764,-3.516045c0,0 -4.155326,-2.237483 -4.159384,-2.364996c-0.004058,-0.127513 -25.886819,12.913131 -25.886819,12.913131" id="svg_189"/>
      <path stroke="#0000bf" fill="none" stroke-width="2" stroke-dasharray="null" stroke-linejoin="null" stroke-linecap="null" d="m423.944865,59.54608l-28.132418,2.109971c0,0 -18.535088,9.077445 -18.535088,9.077445c0,0 -0.319641,2.557124 -0.319641,2.557124c0,0 44.749664,3.196405 44.745606,3.068892" id="svg_190"/>
      <path stroke="#0000bf" fill="none" stroke-width="2" stroke-dasharray="null" stroke-linejoin="null" stroke-linecap="null" d="m426.182348,71.372777l-48.909047,-1.406075l48.909047,1.406075z" id="svg_192"/>
      <path stroke="#0000bf" fill="none" stroke-width="2" stroke-dasharray="null" stroke-linejoin="null" stroke-linecap="null" d="m377.117538,73.21071c-0.23973,0 -4.554877,3.116494 -4.718755,2.909071c-0.163878,-0.207423 -1.514235,4.043108 -1.514235,4.043108c0,0 2.876764,0.47946 2.876764,0.47946c0,0 1.678113,1.198652 1.514235,0.991229c-0.163878,-0.207423 -0.075853,2.844457 -0.23973,2.637034c-0.163878,-0.207423 2.561181,1.406075 2.397303,1.198652c-0.163878,-0.207423 19.582036,-10.100982 19.418158,-10.308405" id="svg_204"/>
      <path stroke="#0000bf" fill="none" stroke-width="2" stroke-dasharray="null" stroke-linejoin="null" stroke-linecap="null" d="m372.802392,75.847743l2.952616,0.032307l2.157573,1.438382l1.198652,2.637034l0,3.835686" id="svg_205"/>
      <path stroke="#0000bf" fill="none" stroke-width="2" stroke-dasharray="null" stroke-linejoin="null" stroke-linecap="null" d="m370.944482,80.16289c0,0 -43.690855,25.531281 -43.7948,25.383791c-0.103946,-0.14749 1.722125,0.866681 1.722125,0.866681c0,0 0.719191,2.157573 0.615245,2.010083c-0.103946,-0.14749 45.772575,-23.585813 45.66863,-23.733304" id="svg_209"/>
      <path stroke="#0000bf" fill="none" stroke-width="2" stroke-dasharray="null" stroke-linejoin="null" stroke-linecap="null" d="m326.714234,104.974979c0,0 -6.113124,0.179798 -6.113124,0.179798c0,0 -5.753528,1.438382 -5.857474,1.290892c-0.103946,-0.14749 3.879698,1.585872 3.775753,1.438382c-0.103946,-0.14749 2.261519,1.945468 2.157573,1.797978c-0.103946,-0.14749 1.722125,2.664659 1.61818,2.517168c-0.103946,-0.14749 -0.615245,3.024254 -0.719191,2.876764c-0.103946,-0.14749 -2.413223,3.563648 -2.517168,3.416157c-0.103946,-0.14749 4.239294,-0.391903 4.135348,-0.539393c-0.103946,-0.14749 4.059496,-3.268667 4.059496,-3.268667c0,0 1.977775,-3.056562 1.87383,-3.204052c-0.103946,-0.14749 0.643339,-3.268667 0.539393,-3.416157" id="svg_210"/>
      <path stroke="#0000bf" fill="none" stroke-width="2" stroke-dasharray="null" stroke-linejoin="null" stroke-linecap="null" d="m321.679897,111.447699l-17.184732,8.303004l17.184732,-8.303004z" id="svg_213"/>
      <path stroke="#0000bf" fill="none" stroke-width="2" stroke-dasharray="null" stroke-linejoin="null" stroke-linecap="null" d="m441.380253,36.02254l-45.36803,-11.474749c0,0 -21.921279,9.452024 -21.921279,9.452024c0,0 49.219636,22.115124 49.219636,22.115124" id="svg_214"/>
      <path stroke="#0000bf" fill="none" stroke-width="2" stroke-dasharray="null" stroke-linejoin="null" stroke-linecap="null" d="m423.445427,51.395248l-44.963486,-19.4308l44.963486,19.4308z" id="svg_216"/>
      <path stroke="#0000bf" fill="none" stroke-width="2" stroke-dasharray="null" stroke-linejoin="null" stroke-linecap="null" d="m395.93637,24.290737l6.009178,-2.57476c0,0 1.137783,-2.819173 1.137783,-2.819173c0,0 -0.134848,-3.101511 -0.193845,-3.114153c-0.058996,-0.012642 -1.694032,-2.010083 -1.753028,-2.022725c-0.058996,-0.012642 -2.772818,-0.391903 -2.831815,-0.404545c-0.058996,-0.012642 -28.25915,8.642935 -28.318147,8.630292c-0.058996,-0.012642 -1.82888,1.361125 -1.887877,1.348483c-0.058996,-0.012642 -0.750094,1.226277 -0.80909,1.213635c-0.058996,-0.012642 -0.075852,2.035367 -0.134848,2.022725c-0.058996,-0.012642 2.351417,0.012642 2.292422,0c-0.058996,-0.012642 1.542328,1.091429 1.483331,1.078786c-0.058996,-0.012642 0.193845,1.495974 0.134848,1.483331c-0.058996,-0.012642 -0.615245,1.630822 -0.674241,1.61818c-0.058996,-0.012642 -1.963729,1.495974 -2.022725,1.483331c-0.058996,-0.012642 1.272631,1.226277 1.213635,1.213635c-0.058996,-0.012642 2.351417,0.821732 2.351417,0.821732c0,0 1.753028,-0.539393 1.694032,-0.552035" id="svg_218"/>
      <path stroke="#0000bf" fill="none" stroke-width="2" stroke-dasharray="null" stroke-linejoin="null" stroke-linecap="null" d="m369.236403,22.40286l2.098577,0.122206l1.887877,0.943938l1.483331,2.292422l0.404545,2.292422l0,2.157573c0,0 -0.075852,1.76567 -0.075852,1.76567c0,0 -0.674241,1.483331 -0.733238,1.470689" id="svg_219"/>
      <path stroke="#0000bf" fill="none" stroke-width="2" stroke-dasharray="null" stroke-linejoin="null" stroke-linecap="null" d="m366.943982,26.718007c0,0 -46.792366,18.204523 -46.792366,18.204523c0,0 0.943939,1.078786 0.884942,1.066144c-0.058996,-0.012642 0.868086,1.226277 0.80909,1.213635c-0.058996,-0.012642 0.328693,1.495974 0.269697,1.483331c-0.058996,-0.012642 -0.345549,1.091429 -0.404545,1.078787c-0.058996,-0.012642 46.311969,-17.517639 46.252973,-17.530281" id="svg_220"/>
      <path stroke="#0000bf" fill="none" stroke-width="2" stroke-dasharray="null" stroke-linejoin="null" stroke-linecap="null" d="m319.612223,44.517985c0,0 -7.686354,-0.269697 -7.821202,-0.269697c-0.134848,0 -3.640905,1.348483 -3.699901,1.335841c-0.058996,-0.012642 -0.345549,1.091429 -0.404545,1.078786c-0.058996,-0.012642 3.565053,0.686883 3.506056,0.674241c-0.058996,-0.012642 1.407479,0.821732 1.348483,0.80909c-0.058996,-0.012642 0.868086,1.630822 0.80909,1.61818c-0.058996,-0.012642 0.193845,1.900519 0.134848,1.887877c-0.058996,-0.012642 -0.884942,1.900519 -0.943938,1.887877c-0.058996,-0.012642 -1.154639,1.361125 -1.213635,1.348483c-0.058996,-0.012642 -1.694032,1.76567 -1.753028,1.753028c-0.058996,-0.012642 2.216569,0.552035 2.157573,0.539393c-0.058996,-0.012642 1.946872,-0.796448 1.887877,-0.80909c-0.058996,-0.012642 2.621114,-1.200993 2.562118,-1.213635c-0.058996,-0.012642 1.946872,-1.605538 1.887877,-1.61818c-0.058996,-0.012642 2.351417,-1.470689 2.292422,-1.483331c-0.058996,-0.012642 1.272631,-2.144931 1.272631,-2.144931" id="svg_221"/>
      <path stroke="#0000bf" fill="none" stroke-width="2" stroke-dasharray="null" stroke-linejoin="null" stroke-linecap="null" d="m313.4092,49.911917c0,0 -17.934826,6.203023 -17.934826,6.203023c0,0 17.934826,-6.203023 17.934826,-6.203023z" id="svg_222"/>
      <path stroke="#0000bf" fill="none" stroke-width="2" stroke-dasharray="null" stroke-linejoin="null" stroke-linecap="null" d="m433.289354,51.934642l-1.946872,0.122206l-1.348483,1.078786l-0.539393,1.61818l0.269697,1.213635l1.213635,0.943938l1.213635,0l1.213635,-1.213635l0.404545,-1.887877l-0.480397,-1.875234l0,0.000001z" id="svg_224"/>
      <path stroke="#0000bf" fill="none" stroke-width="2" stroke-dasharray="null" stroke-linejoin="null" stroke-linecap="null" d="m435.312079,45.866468l-1.407479,2.684324l-0.539393,2.831815" id="svg_225"/>
      <path stroke="#0000bf" fill="none" stroke-width="2" stroke-dasharray="null" stroke-linejoin="null" stroke-linecap="null" d="m423.849972,53.822518l2.368274,0.391903l2.831815,0.404545" id="svg_226"/>
      <path stroke="#0000bf" fill="none" stroke-width="2" stroke-dasharray="null" stroke-linejoin="null" stroke-linecap="null" d="m432.075719,57.463423l0.2107,2.819173l0.943939,2.966663" id="svg_227"/>
      <path stroke="#0000bf" fill="none" stroke-width="2" stroke-dasharray="null" stroke-linejoin="null" stroke-linecap="null" d="m455.269629,29.340057c0,0 18.459236,-9.109753 18.459236,-9.109753c0,0 3.116494,0.239731 2.952617,0.032308c-0.163878,-0.207423 1.60226,2.125265 1.438382,1.917842c-0.163878,-0.207423 0.883069,2.844457 0.719191,2.637034c-0.163878,-0.207423 -0.315582,3.563647 -0.47946,3.356225c-0.163878,-0.207423 -1.274504,1.885536 -1.438382,1.678113c-0.163878,-0.207423 -13.021291,7.878793 -13.021291,7.878793" id="svg_228"/>
      <path stroke="#0000bf" fill="none" stroke-width="2" stroke-dasharray="null" stroke-linejoin="null" stroke-linecap="null" d="m494.585406,40.607383c0,0 5.034337,-0.719191 4.870459,-0.926614c-0.163878,-0.207423 4.479024,0.926614 4.315146,0.719191c-0.163878,-0.207423 4.958485,2.844457 4.794607,2.637034c-0.163878,-0.207423 2.561182,3.803378 2.397304,3.595955c-0.163878,-0.207423 -0.315583,4.282839 -0.47946,4.075416c-0.163878,-0.207423 -1.274504,2.604726 -1.438382,2.397304c-0.163878,-0.207423 -13.500751,12.19394 -13.664629,11.986517c-0.163878,-0.207423 0.403608,2.604726 0.23973,2.397304c-0.163878,-0.207423 -1.034774,2.844457 -1.034774,3.084187c0,0.23973 -1.917842,3.116494 -2.081721,2.909071c-0.163878,-0.207423 -3.432077,2.604726 -3.595955,2.397304c-0.163878,-0.207423 -3.192347,0.686883 -3.356225,0.47946c-0.163878,-0.207423 -4.151268,0.686883 -4.315146,0.47946c-0.163878,-0.207423 -2.952616,-0.751499 -3.116494,-0.958922c-0.163878,-0.207423 -2.473156,-2.189881 -2.637034,-2.397304c-0.163878,-0.207423 -1.993695,-2.429611 -2.157573,-2.637034c-0.163878,-0.207423 -1.034774,-3.148802 -1.198652,-3.356225c-0.163878,-0.207423 -0.555313,-3.628263 -0.555313,-3.628263c0,0 0.958922,-3.595955 0.795043,-3.803378c-0.163878,-0.207423 0.403608,-2.189881 0.403608,-2.429611c0,-0.23973 1.678112,-2.157573 1.514234,-2.364996c-0.163878,-0.207423 2.081721,-1.95015 2.081721,-1.95015" id="svg_229"/>
      <path stroke="#0000bf" fill="none" stroke-width="2" stroke-dasharray="null" stroke-linejoin="null" stroke-linecap="null" d="m476.171118,53.68767c0,0 2.696966,-0.943938 2.696966,-0.943938c0,0 2.831815,0.134848 2.772818,0.122206c-0.058996,-0.012642 3.025659,0.552035 2.966663,0.539393c-0.058996,-0.012642 2.621114,0.95658 2.562118,0.943938c-0.058996,-0.012642 2.216569,1.495974 2.157573,1.483331c-0.058996,-0.012642 2.351417,2.979305 2.292422,2.966663c-0.058996,-0.012642 0.868086,2.844457 0.80909,2.831815c-0.058996,-0.012642 0.328693,2.57476 0.269697,2.562118c-0.058996,-0.012642 -0.075852,2.709608 -0.134848,2.696966c-0.058996,-0.012642 -0.480397,2.170215 -0.539393,2.157573c-0.058996,-0.012642 -1.019791,2.305063 -1.019791,2.305063c0,0 -1.348483,1.887877 -1.348483,1.887877c0,0 -2.292422,2.157573 -2.292422,2.157573" id="svg_232"/>
      <path stroke="#0000bf" fill="none" stroke-width="2" stroke-dasharray="null" stroke-linejoin="null" stroke-linecap="null" d="m483.452927,65.958866l0.480397,-1.495973c0,0 -0.480397,-2.144931 -0.480397,-2.144931c0,0 -1.61818,-0.80909 -1.677176,-0.821732c-0.058996,-0.012642 -1.424336,0.282338 -1.483331,0.269697c-0.058996,-0.012642 -0.884942,1.361125 -0.943939,1.348483c-0.058996,-0.012642 -0.345549,1.495974 -0.404545,1.483332c-0.058996,-0.012642 0.598389,1.226277 0.539393,1.213635c-0.058996,-0.012642 1.137783,1.091429 1.137783,1.091429c0,0 1.483332,0 1.483332,0c0,0 1.348483,-0.943939 1.348483,-0.943939z" id="svg_233"/>
      <path stroke="#0000bf" fill="none" stroke-width="2" stroke-dasharray="null" stroke-linejoin="null" stroke-linecap="null" d="m479.002933,53.148277c0.134848,0 0.943938,4.584843 0.884942,4.572201c-0.058996,-0.012642 1.002934,3.38385 0.943938,3.371208" id="svg_235"/>
      <path stroke="#0000bf" fill="none" stroke-width="2" stroke-dasharray="null" stroke-linejoin="null" stroke-linecap="null" d="m479.812023,67.037653l-1.137783,2.819173c0,0 -1.019791,4.058091 -1.154639,4.19294" id="svg_236"/>
      <path stroke="#0000bf" fill="none" stroke-width="2" stroke-dasharray="null" stroke-linejoin="null" stroke-linecap="null" d="m483.722624,65.824018l3.177363,1.200993c0,0 3.834749,2.305063 3.834749,2.305063" id="svg_237"/>
      <path stroke="#0000bf" fill="none" stroke-width="2" stroke-dasharray="null" stroke-linejoin="null" stroke-linecap="null" d="m495.319579,39.933141l19.359162,-14.171715l3.101511,-0.404545l2.966663,0.674241l1.61818,2.022725l0.539393,2.42727l-0.269697,2.42727l-0.943938,1.753028c0,0 -11.672808,9.856569 -11.672808,9.856569" id="svg_238"/>
      <path stroke="#0000bf" fill="none" stroke-width="2" stroke-dasharray="null" stroke-linejoin="null" stroke-linecap="null" d="m511.096833,47.889192l9.11069,-0.012642l4.584843,0.943938c0,0 2.890811,1.361125 2.890811,1.361125c0,0 1.078786,1.887877 1.019791,1.875234c-0.058996,-0.012642 1.002934,2.57476 0.943938,2.562118c-0.058996,-0.012642 -13.021291,14.036867 -13.021291,14.036867c0,0 -20.766641,-0.404545 -20.825637,-0.417187" id="svg_239"/>
      <path stroke="#0000bf" fill="none" stroke-width="2" stroke-dasharray="null" stroke-linejoin="null" stroke-linecap="null" d="m492.218068,73.510373c0,0 69.177187,2.696966 69.177187,2.696966c0,0 3.910601,-4.315146 3.851605,-4.327788c-0.058996,-0.012642 -48.486398,-3.088869 -48.486398,-3.088869" id="svg_241"/>
      <path stroke="#0000bf" fill="none" stroke-width="2" stroke-dasharray="null" stroke-linejoin="null" stroke-linecap="null" d="m565.171008,71.352799l-1.272631,-1.76567c0,0 -0.075852,-2.954021 -0.075852,-2.954021c0,0 1.078786,-2.42727 1.019791,-2.439912c-0.058996,-0.012642 2.081721,-1.470689 2.022725,-1.483331c-0.058996,-0.012642 2.216569,-1.200993 2.157573,-1.213635c-0.058996,-0.012642 1.946872,-0.257055 1.887877,-0.269697c-0.058996,-0.012642 2.621114,0.282338 2.562118,0.269697c-0.058996,-0.012642 1.946872,0.821732 1.887877,0.80909c-0.058996,-0.012642 1.542328,1.226277 1.483331,1.213635c-0.058996,-0.012642 1.137783,1.76567 1.078786,1.753028c-0.058996,-0.012642 0.598389,1.495974 0.539393,1.483331c-0.058996,-0.012642 0.328693,1.900519 0.328693,1.900519c0,0 -0.134848,2.157573 -0.193845,2.144931c-0.058996,-0.012642 -0.615245,1.630822 -0.674241,1.61818c-0.058996,-0.012642 -1.424336,1.495974 -1.483331,1.483331c-0.058996,-0.012642 -1.424336,1.361125 -1.483331,1.348483c-0.058996,-0.012642 -1.963729,0.417187 -2.022725,0.404545c-0.058996,-0.012642 -2.233425,0.14749 -2.233425,0.14749" id="svg_243"/>
      <path stroke="#0000bf" fill="none" stroke-width="2" stroke-dasharray="null" stroke-linejoin="null" stroke-linecap="null" d="m544.94376,100.345188c0,0 22.519669,-31.149961 22.519669,-31.149961c0,0 1.348484,-1.753028 1.348484,-1.753028c0,0 2.157573,-0.80909 2.098577,-0.821732c-0.058996,-0.012642 1.812024,0.282339 1.753028,0.269697c-0.058996,-0.012642 0.733238,1.900519 0.674241,1.887877c-0.058996,-0.012642 -0.480397,2.035367 -0.539393,2.022725c-0.058996,-0.012642 -1.154639,2.305063 -1.213635,2.292421c-0.058996,-0.012642 -23.134915,29.81412 -23.134915,29.81412c0,0 -0.134848,4.315146 -0.193845,4.302504c-0.058996,-0.012642 -0.750093,2.305063 -0.80909,2.292421c-0.058996,-0.012642 -2.368274,1.630822 -2.42727,1.61818c-0.058996,-0.012642 -0.884942,-3.628263 -0.943938,-3.640905c-0.058996,-0.012642 -1.694032,-3.223718 -1.753028,-3.23636c-0.058996,-0.012642 -1.82888,-2.414628 -1.887877,-2.42727c-0.058996,-0.012642 -1.289487,-0.526751 -1.348483,-0.539393c-0.058996,-0.012642 2.621114,-1.335841 2.562118,-1.348483c-0.058996,-0.012642 3.295355,0.417187 3.295355,0.417187z" id="svg_245"/>
      <path stroke="#0000bf" fill="none" stroke-width="2" stroke-dasharray="null" stroke-linejoin="null" stroke-linecap="null" d="m538.875586,101.289126l-2.351417,0.391903l-1.078786,1.078786l1.61818,1.213635l1.887877,2.966663l0.80909,2.292422l0.404545,3.101511l-0.539393,2.022725l-0.674241,2.42727l-1.348483,2.42727l-2.292422,1.887877l2.292422,0.539393l2.562118,-0.539393l2.42727,-2.157573c0,0 1.407479,-2.549476 1.407479,-2.549476c0,0 0.674241,-2.831815 0.615245,-2.844457c-0.058996,-0.012642 0.193845,-2.684325 0.134848,-2.696966" id="svg_246"/>
      <path stroke="#0000bf" fill="none" stroke-width="2" stroke-dasharray="null" stroke-linejoin="null" stroke-linecap="null" d="m539.549828,110.054267c0,0 -10.113624,14.024225 -10.113624,14.024225c0,0 10.113624,-14.024225 10.113624,-14.024225z" id="svg_247"/>
      <path stroke="#0000bf" fill="none" stroke-width="2" stroke-dasharray="null" stroke-linejoin="null" stroke-linecap="null" d="m529.672188,54.732744c0,0 39.746542,4.348858 39.721257,4.336216c-0.025284,-0.012642 -39.721257,-4.336216 -39.721257,-4.336216z" id="svg_248"/>
      <path stroke="#0000bf" fill="none" stroke-width="2" stroke-dasharray="null" stroke-linejoin="null" stroke-linecap="null" d="m567.396005,62.014553c0,0 13.349984,-16.586343 13.349984,-16.586343c0,0 2.224997,-1.314771 2.224997,-1.314771c0,0 2.932951,-0.202273 2.907667,-0.214915c-0.025284,-0.012642 1.946872,0.417187 1.921589,0.404545c-0.025284,-0.012642 1.340055,1.327413 1.314771,1.314771c-0.025284,-0.012642 0.93551,1.428549 0.910226,1.415907c-0.025284,-0.012642 0.227557,1.630822 0.202273,1.61818c-0.025284,-0.012642 0.12642,2.642184 0.101136,2.629542c-0.025284,-0.012642 -0.480397,2.237639 -0.505681,2.224997c-0.025284,-0.012642 -1.087214,2.541048 -1.112499,2.528406c-0.025284,-0.012642 -9.582658,14.677396 -9.607943,14.664755" id="svg_249"/>
      <path stroke="#0000bf" fill="none" stroke-width="2" stroke-dasharray="null" stroke-linejoin="null" stroke-linecap="null" d="m586.106209,60.194101l4.626983,1.099856c0,0 -6.04289,10.126266 -6.04289,10.126266c0,0 -3.135223,1.213635 -3.160508,1.200993c-0.025284,-0.012642 -3.413348,0.619459 -3.438632,0.606817" id="svg_250"/>
      <path stroke="#0000bf" fill="none" stroke-width="2" stroke-dasharray="null" stroke-linejoin="null" stroke-linecap="null" d="m519.32258,74.589159l32.3046,15.494914l-32.3046,-15.494914z" id="svg_251"/>
      <path stroke="#0000bf" fill="none" stroke-width="2" stroke-dasharray="null" stroke-linejoin="null" stroke-linecap="null" d="m477.924147,75.533097l2.233425,5.246442l58.793866,29.262085" id="svg_252"/>
      <path stroke="#0000bf" fill="none" stroke-width="2" stroke-dasharray="null" stroke-linejoin="null" stroke-linecap="null" d="m544.94376,112.346688c0,0 27.643905,13.484832 27.643905,13.484832c0,0 8.899989,-16.316646 8.840993,-16.329289c-0.058996,-0.012642 -24.887942,-16.843397 -24.946939,-16.85604" id="svg_253"/>
      <path stroke="#0000bf" fill="none" stroke-width="2" stroke-dasharray="null" stroke-linejoin="null" stroke-linecap="null" d="m485.745349,108.840631l3.716757,-2.57476l2.022725,-3.506056l0.674241,-4.180298l-0.674241,-3.775753l-1.213635,-3.101511l-3.101511,-2.696966l-3.910601,-1.483331c0,0 -3.312212,-0.257055 -3.581908,0.012642c-0.269697,0.269697 -3.371208,1.483331 -3.371208,1.483331c0,0 -2.966663,3.640905 -3.025659,3.628263c-0.058996,-0.012642 -1.963729,3.249002 -2.022725,3.23636c-0.058996,-0.012642 -0.345549,3.249002 -0.404545,3.23636c-0.058996,-0.012642 0.328693,2.57476 0.269697,2.562118c-0.058996,-0.012642 1.272631,2.979305 1.213635,2.966663c-0.058996,-0.012642 1.542328,1.900519 1.483331,1.887877c-0.058996,-0.012642 1.946872,1.630822 1.946872,1.630822c0,0 2.696966,0.674241 2.63797,0.6616c-0.058996,-0.012642 3.565053,0.417187 3.565053,0.417187c0,0 3.775753,-0.404545 3.775753,-0.404545l0.000001,-0.000001z" id="svg_260"/>
      <path stroke="#0000bf" fill="none" stroke-width="2" stroke-dasharray="null" stroke-linejoin="null" stroke-linecap="null" d="m479.677175,80.92703l-3.430204,3.763111l-1.753028,3.101511l-1.078786,3.775753" id="svg_261"/>
      <path stroke="#0000bf" fill="none" stroke-width="2" stroke-dasharray="null" stroke-linejoin="null" stroke-linecap="null" d="m517.839249,99.536098l-21.769575,-0.14749l-1.213635,2.966663l-2.292422,2.966663c0,0 -4.525847,2.439912 -4.525847,2.439912" id="svg_262"/>
      <path stroke="#0000bf" fill="none" stroke-width="2" stroke-dasharray="null" stroke-linejoin="null" stroke-linecap="null" d="m483.722624,99.805794l0.480397,-1.630822l-0.80909,-1.61818c0,0 -1.694032,-0.257055 -1.694032,-0.257055c0,0 -2.022725,0.80909 -2.081721,0.796448c-0.058996,-0.012642 -0.2107,1.900519 -0.269697,1.887877c-0.058996,-0.012642 0.733238,1.226277 0.674241,1.213635c-0.058996,-0.012642 1.677176,0.417187 1.61818,0.404545c-0.058996,-0.012642 2.081721,-0.796448 2.081721,-0.796448l0.000001,0z" id="svg_263"/>
      <path stroke="#0000bf" fill="none" stroke-width="2" stroke-dasharray="null" stroke-linejoin="null" stroke-linecap="null" d="m479.407478,99.940643l-3.295356,2.819173c0,0 -1.694032,3.653546 -1.694032,3.653546" id="svg_264"/>
      <path stroke="#0000bf" fill="none" stroke-width="2" stroke-dasharray="null" stroke-linejoin="null" stroke-linecap="null" d="m483.318079,88.073991c0,0 -1.078786,4.719691 -1.078786,4.854539c0,0.134848 -0.134848,2.696966 -0.134848,2.696966" id="svg_265"/>
      <path stroke="#0000bf" fill="none" stroke-width="2" stroke-dasharray="null" stroke-linejoin="null" stroke-linecap="null" d="m490.869585,102.50276l-4.374142,-1.091428l-2.157573,-1.887877" id="svg_266"/>
      <path stroke="#0000bf" fill="none" stroke-width="2" stroke-dasharray="null" stroke-linejoin="null" stroke-linecap="null" d="m572.587665,125.696671c0,0 -4.989388,11.866652 -4.989388,11.866652c0,0 -1.887877,2.292422 -1.946872,2.279779c-0.058996,-0.012642 -2.368274,1.361125 -2.42727,1.348483c-0.058996,-0.012642 -1.289487,0.012642 -1.348483,0c-0.058996,-0.012642 1.677176,-3.223718 1.677176,-3.223718c0,0 0.404545,-3.101511 0.345549,-3.114153c-0.058996,-0.012642 -1.289487,-1.605538 -1.348483,-1.61818c-0.058996,-0.012642 -1.694032,0.14749 -1.753028,0.134848c-0.058996,-0.012642 -2.098577,1.630822 -2.157573,1.61818c-0.058996,-0.012642 -2.368274,4.462636 -2.42727,4.449994c-0.058996,-0.012642 -1.963729,-3.628263 -2.022725,-3.640905c-0.058996,-0.012642 0.868086,-2.954021 0.80909,-2.966663c-0.058996,-0.012642 1.677176,-2.819173 1.677176,-2.819173c0,0 5.259084,-8.899989 5.200088,-8.912631" id="svg_270"/>
      <path stroke="#0000bf" fill="none" stroke-width="2" stroke-dasharray="null" stroke-linejoin="null" stroke-linecap="null" d="m556.13617,139.181503c0,0 -21.575731,40.04995 -21.575731,40.04995c0,0 1.483331,0.404545 1.483331,0.404545c0,0 1.078786,0.943938 1.019791,0.931296c-0.058996,-0.012642 0.733238,1.226277 0.674241,1.213635c-0.058996,-0.012642 24.196845,-40.981246 24.061996,-40.981246" id="svg_271"/>
      <path stroke="#0000bf" fill="none" stroke-width="2" stroke-dasharray="null" stroke-linejoin="null" stroke-linecap="null" d="m534.155895,179.096605l-2.351417,0.391903l-2.292422,1.348483c0,0 -1.82888,0.95658 -1.82888,1.091429c0,0.134848 2.831815,0.539393 2.772818,0.526751c-0.058996,-0.012642 2.486266,1.091429 2.42727,1.078786c-0.058996,-0.012642 1.002934,2.170215 0.943938,2.157573c-0.058996,-0.012642 0.463541,2.035367 0.404545,2.022725c-0.058996,-0.012642 -0.2107,1.900519 -0.269697,1.887877c-0.058996,-0.012642 3.025659,-1.066144 2.966663,-1.078786c-0.058996,-0.012642 1.137783,-3.223718 1.078786,-3.23636c-0.058996,-0.012642 -0.075852,-3.493414 -0.134848,-3.506056" id="svg_272"/>
      <path stroke="#0000bf" fill="none" stroke-width="2" stroke-dasharray="null" stroke-linejoin="null" stroke-linecap="null" d="m527.548327,182.063267l1.592896,2.161787l0.606818,2.654826l0.379261,2.503122l-0.455113,2.048009l-1.668748,2.578974l-1.365339,1.972157l-1.668748,1.441191c0,0 2.882383,0.341335 2.882383,0.341335c0,0 2.503122,-0.910226 2.503122,-0.948152c0,-0.037926 1.517043,-1.55497 1.517043,-1.592896c0,-0.037926 1.441192,-1.706674 1.441192,-1.7446c0,-0.037926 0.758522,-1.934231 0.758522,-1.972157c0,-0.037926 0.227557,-2.010083 0.227557,-2.048009" id="svg_276"/>
      <path stroke="#0000bf" fill="none" stroke-width="2" stroke-dasharray="null" stroke-linejoin="null" stroke-linecap="null" d="m525.348614,197.46126c0,0 -7.054253,10.846862 -7.054253,10.846862c0,0 7.054253,-10.846862 7.054253,-10.846862z" id="svg_279"/>
      <path stroke="#0000bf" fill="none" stroke-width="2" stroke-dasharray="null" stroke-linejoin="null" stroke-linecap="null" d="m568.407367,134.59666l-0.868086,-3.249002l-2.157573,-1.61818l-2.966663,-0.674241l-3.101511,0.539393l-3.23636,1.483331" id="svg_280"/>
      <path stroke="#0000bf" fill="none" stroke-width="2" stroke-dasharray="null" stroke-linejoin="null" stroke-linecap="null" d="m522.181031,131.571729l-11.298021,12.018824l11.298021,-12.018824z" id="svg_281"/>
      <path stroke="#0000bf" fill="none" stroke-width="2" stroke-dasharray="null" stroke-linejoin="null" stroke-linecap="null" d="m477.857555,178.878516l-20.247953,20.116383l20.247953,-20.116383z" id="svg_282"/>
      <path stroke="#0000bf" fill="none" stroke-width="2" stroke-dasharray="null" stroke-linejoin="null" stroke-linecap="null" d="m418.617524,242.38042c0,0 -17.047491,16.621304 -17.047491,16.621304c0,0 17.047491,-16.621304 17.047491,-16.621304z" id="svg_283"/>
      <path stroke="#0000bf" fill="none" stroke-width="2" stroke-dasharray="null" stroke-linejoin="null" stroke-linecap="null" d="m341.05144,322.787726c0,0 -15.342742,16.479241 -15.844018,15.996599c-0.501276,-0.482643 15.844018,-15.996599 15.844018,-15.996599z" id="svg_284"/>
      <path stroke="#0000bf" fill="none" stroke-width="2" stroke-dasharray="null" stroke-linejoin="null" stroke-linecap="null" d="m272.861477,395.523688l-16.980518,17.133098l16.980518,-17.133098z" id="svg_285"/>
      <path stroke="#0000bf" fill="none" stroke-width="2" stroke-dasharray="null" stroke-linejoin="null" stroke-linecap="null" d="m514.935847,214.25206c0,0 -10.228494,15.342742 -10.228494,15.342742c0,0 10.228494,-15.342742 10.228494,-15.342742z" id="svg_287"/>
      <path stroke="#0000bf" fill="none" stroke-width="2" stroke-dasharray="null" stroke-linejoin="null" stroke-linecap="null" d="m477.00518,269.656406l-12.150395,15.85451l12.150395,-15.85451z" id="svg_288"/>
      <path stroke="#0000bf" fill="none" stroke-width="2" stroke-dasharray="null" stroke-linejoin="null" stroke-linecap="null" d="m417.338962,355.320048l-14.281331,18.411633l14.281331,-18.411633z" id="svg_289"/>
      <path stroke="#0000bf" fill="none" stroke-width="2" stroke-dasharray="null" stroke-linejoin="null" stroke-linecap="null" d="m338.778441,469.396148l-16.980518,22.247345l16.980518,-22.247345z" id="svg_290"/>
      <path stroke="#0000bf" fill="none" stroke-width="2" stroke-dasharray="null" stroke-linejoin="null" stroke-linecap="null" d="m285.220908,60.824642c0,0 -27.489079,11.187416 -27.489079,11.187416c0,0 27.489079,-11.187416 27.489079,-11.187416z" id="svg_291"/>
      <path stroke="#0000bf" fill="none" stroke-width="2" stroke-dasharray="null" stroke-linejoin="null" stroke-linecap="null" d="m210.105401,90.551204c0,0 -25.890877,10.548135 -25.890877,10.548135c0,0 25.890877,-10.548135 25.890877,-10.548135z" id="svg_292"/>
      <path stroke="#0000bf" fill="none" stroke-width="2" stroke-dasharray="null" stroke-linejoin="null" stroke-linecap="null" d="m102.066927,133.063384c0,0 -28.767641,11.826697 -28.767641,11.826697c0,0 28.767641,-11.826697 28.767641,-11.826697z" id="svg_293"/>
      <path stroke="#0000bf" fill="none" stroke-width="2" stroke-dasharray="null" stroke-linejoin="null" stroke-linecap="null" d="m293.531559,126.031295c0,0 -16.940944,7.991011 -16.945002,7.863498c-0.004058,-0.127512 16.945002,-7.863498 16.945002,-7.863498z" id="svg_294"/>
      <path stroke="#0000bf" fill="none" stroke-width="2" stroke-dasharray="null" stroke-linejoin="null" stroke-linecap="null" d="m235.996278,151.922172l-18.223564,8.82242l18.223564,-8.82242z" id="svg_295"/>
      <path stroke="#0000bf" fill="none" stroke-width="2" stroke-dasharray="null" stroke-linejoin="null" stroke-linecap="null" d="m175.584231,179.09161c0,0 -18.539146,9.269573 -18.539146,9.269573c0,0 18.539146,-9.269573 18.539146,-9.269573z" id="svg_296"/>
    </g>
  </g>
</svg>